<svg width="509" height="346" viewBox="0 0 509 346" fill="none" xmlns="http://www.w3.org/2000/svg">
<g clip-path="url(#clip0)">
<path d="M456.627 337.791C445.212 346.013 430.418 346.426 416.118 345.416C414.121 345.275 412.138 345.109 410.174 344.931C410.162 344.928 410.146 344.929 410.134 344.926C410.04 344.917 409.945 344.908 409.855 344.903C409.45 344.865 409.044 344.827 408.642 344.789L408.737 344.97L409.035 345.531C408.928 345.343 408.821 345.159 408.714 344.971C408.683 344.915 408.647 344.859 408.616 344.802C404.912 338.357 401.237 331.676 400.3 324.316C399.331 316.678 402.054 308.028 408.778 304.274C409.66 303.783 410.594 303.392 411.563 303.108C411.965 302.986 412.373 302.887 412.785 302.799C415.307 302.239 417.933 302.361 420.392 303.152C422.851 303.943 425.055 305.374 426.778 307.299C428.5 309.224 429.679 311.573 430.192 314.104C430.706 316.635 430.536 319.258 429.699 321.701C435.401 315.857 434.337 306.375 432.37 298.451C430.4 290.527 428.015 281.71 432.022 274.593C434.25 270.631 438.168 268.173 442.565 267.183C442.699 267.154 442.834 267.125 442.969 267.1C448.208 266.039 453.654 266.993 458.219 269.771C466.626 275.067 470.944 285.109 472.345 294.946C474.603 310.776 469.607 328.442 456.627 337.791Z" fill="#F2F2F2"/>
<path d="M452.942 312.416C452.61 315.907 451.771 319.332 450.451 322.582C449.235 325.457 447.595 328.135 445.587 330.526C441.411 335.412 436.123 339.224 430.166 341.642C425.661 343.486 420.941 344.754 416.118 345.416C414.121 345.275 412.138 345.109 410.174 344.931C410.162 344.928 410.146 344.929 410.134 344.926C410.04 344.917 409.945 344.908 409.855 344.903C409.45 344.865 409.044 344.827 408.642 344.789L408.737 344.97L409.035 345.531C408.928 345.343 408.821 345.159 408.714 344.971C408.683 344.915 408.647 344.859 408.616 344.802C412.232 341.201 414.932 336.785 416.489 331.925C418.046 327.065 418.416 321.903 417.567 316.871C416.678 311.875 414.621 307.159 411.563 303.108C411.965 302.986 412.373 302.887 412.785 302.799C413.947 304.388 414.967 306.076 415.831 307.844C418.934 314.149 419.924 321.285 418.655 328.196C417.474 334.451 414.534 340.238 410.178 344.88C410.559 344.853 410.945 344.822 411.321 344.788C418.46 344.183 425.583 342.649 432.058 339.506C437.592 336.885 442.396 332.944 446.048 328.03C449.969 322.623 451.697 316.12 451.994 309.511C452.222 302.39 451.476 295.271 449.775 288.353C448.126 281.298 445.619 274.472 442.311 268.026C442.237 267.88 442.222 267.711 442.269 267.554C442.316 267.397 442.422 267.264 442.565 267.183C442.683 267.103 442.829 267.073 442.969 267.1C443.038 267.118 443.102 267.152 443.156 267.198C443.21 267.244 443.253 267.302 443.281 267.367C443.69 268.163 444.09 268.96 444.475 269.766C447.684 276.477 450.046 283.561 451.508 290.855C452.927 297.891 453.684 305.251 452.942 312.416Z" fill="white"/>
<path d="M21.2362 109.975C20.8963 109.975 20.5595 109.911 20.2429 109.787C19.7309 109.591 19.2909 109.243 18.9813 108.79C18.6717 108.338 18.5071 107.802 18.5094 107.253V78.853C18.5083 77.8916 18.1259 76.97 17.446 76.2902C16.7661 75.6105 15.8442 75.2281 14.8827 75.227H9.06545C6.66197 75.2243 4.3577 74.2685 2.65819 72.5694C0.958667 70.8703 0.00269371 68.5666 0 66.1638V9.06319C0.0026953 6.66031 0.958667 4.35662 2.65819 2.65753C4.3577 0.95843 6.66197 0.00269303 9.06545 0H214.256C216.659 0.00269623 218.964 0.958431 220.663 2.65753C222.363 4.35662 223.319 6.66031 223.321 9.06319V66.1638C223.319 68.5666 222.363 70.8703 220.663 72.5694C218.964 74.2685 216.659 75.2243 214.256 75.227H55.8781C55.3753 75.2275 54.8782 75.3323 54.418 75.5347C53.9578 75.7371 53.5446 76.0327 53.2045 76.4028L23.2335 109.091C22.9804 109.369 22.672 109.591 22.3281 109.743C21.9842 109.896 21.6123 109.974 21.2362 109.975V109.975ZM9.06545 1.20768C6.98225 1.21003 4.98503 2.03842 3.51198 3.51111C2.03893 4.98379 1.21033 6.9805 1.20798 9.06319V66.1638C1.21033 68.2465 2.03893 70.2432 3.51198 71.7158C4.98503 73.1885 6.98225 74.0169 9.06545 74.0193H14.8827C16.1645 74.0207 17.3934 74.5304 18.2998 75.4366C19.2062 76.3428 19.716 77.5714 19.7174 78.8529V107.253C19.7174 107.558 19.8094 107.855 19.9814 108.107C20.1533 108.358 20.3971 108.551 20.681 108.662C20.9648 108.772 21.2753 108.794 21.5719 108.725C21.8685 108.656 22.1373 108.499 22.343 108.274L52.3141 75.5867C52.7675 75.0933 53.3183 74.6993 53.9318 74.4295C54.5452 74.1597 55.2079 74.02 55.8781 74.0193H214.256C216.339 74.0169 218.336 73.1885 219.809 71.7158C221.282 70.2432 222.111 68.2465 222.113 66.1638V9.06319C222.111 6.9805 221.282 4.98379 219.809 3.51111C218.336 2.03842 216.339 1.21003 214.256 1.20768H9.06545Z" fill="#CCCCCC"/>
<path d="M22.2365 25.7175C26.6175 25.7175 30.1691 22.1668 30.1691 17.7869C30.1691 13.4069 26.6175 9.8562 22.2365 9.8562C17.8554 9.8562 14.3038 13.4069 14.3038 17.7869C14.3038 22.1668 17.8554 25.7175 22.2365 25.7175Z" fill="#CCCCCC"/>
<path d="M205.001 61.6698H18.3203C17.7642 61.6705 17.2136 61.5616 16.6997 61.3493C16.1858 61.137 15.7188 60.8256 15.3254 60.4328C14.932 60.0399 14.6199 59.5734 14.407 59.0599C14.1941 58.5464 14.0845 57.996 14.0845 57.4401C14.0845 56.8843 14.1941 56.3338 14.407 55.8203C14.6199 55.3068 14.932 54.8403 15.3254 54.4475C15.7188 54.0547 16.1858 53.7432 16.6997 53.531C17.2136 53.3187 17.7642 53.2098 18.3203 53.2105H205.001C205.557 53.2098 206.108 53.3187 206.622 53.531C207.136 53.7432 207.603 54.0547 207.996 54.4475C208.389 54.8403 208.702 55.3068 208.915 55.8203C209.127 56.3338 209.237 56.8843 209.237 57.4401C209.237 57.996 209.127 58.5464 208.915 59.0599C208.702 59.5734 208.389 60.0399 207.996 60.4328C207.603 60.8256 207.136 61.137 206.622 61.3493C206.108 61.5616 205.557 61.6705 205.001 61.6698V61.6698Z" fill="#CCCCCC"/>
<path d="M144.185 43.6937H18.3203C17.7642 43.6944 17.2136 43.5855 16.6997 43.3732C16.1858 43.161 15.7188 42.8495 15.3254 42.4567C14.932 42.0638 14.6199 41.5973 14.407 41.0838C14.1941 40.5704 14.0845 40.0199 14.0845 39.4641C14.0845 38.9082 14.1941 38.3578 14.407 37.8443C14.6199 37.3308 14.932 36.8643 15.3254 36.4714C15.7188 36.0786 16.1858 35.7672 16.6997 35.5549C17.2136 35.3426 17.7642 35.2337 18.3203 35.2344H144.185C144.741 35.2337 145.291 35.3426 145.805 35.5549C146.319 35.7672 146.786 36.0786 147.179 36.4714C147.573 36.8643 147.885 37.3308 148.098 37.8443C148.311 38.3578 148.42 38.9082 148.42 39.4641C148.42 40.0199 148.311 40.5704 148.098 41.0838C147.885 41.5973 147.573 42.0638 147.179 42.4567C146.786 42.8495 146.319 43.161 145.805 43.3732C145.291 43.5855 144.741 43.6944 144.185 43.6937V43.6937Z" fill="#CCCCCC"/>
<path d="M21.2362 311.413C20.8963 311.413 20.5595 311.349 20.2429 311.226C19.7309 311.029 19.2909 310.681 18.9813 310.229C18.6717 309.776 18.5071 309.24 18.5094 308.692V280.291C18.5083 279.33 18.1259 278.408 17.446 277.729C16.7661 277.049 15.8442 276.667 14.8827 276.665H9.06545C6.66198 276.663 4.35771 275.707 2.65819 274.008C0.958677 272.309 0.0027001 270.005 0 267.602V210.502C0.0026953 208.099 0.958669 205.795 2.65819 204.096C4.3577 202.397 6.66198 201.441 9.06545 201.438H214.256C216.659 201.441 218.964 202.397 220.663 204.096C222.363 205.795 223.319 208.099 223.321 210.502V267.602C223.319 270.005 222.363 272.309 220.663 274.008C218.964 275.707 216.659 276.663 214.256 276.665H55.8781C55.3753 276.666 54.8782 276.771 54.418 276.973C53.9578 277.176 53.5446 277.471 53.2045 277.841L23.2335 310.529C22.9804 310.807 22.672 311.03 22.3281 311.182C21.9842 311.334 21.6123 311.413 21.2362 311.413V311.413ZM9.06545 202.646C6.98224 202.648 4.98503 203.477 3.51198 204.95C2.03893 206.422 1.21033 208.419 1.20798 210.502V267.602C1.21033 269.685 2.03893 271.682 3.51198 273.154C4.98503 274.627 6.98225 275.455 9.06545 275.458H14.8827C16.1645 275.459 17.3934 275.969 18.2998 276.875C19.2062 277.781 19.716 279.01 19.7174 280.291V308.692C19.7174 308.996 19.8094 309.294 19.9814 309.545C20.1533 309.796 20.3971 309.99 20.681 310.1C20.9648 310.21 21.2753 310.233 21.5719 310.163C21.8685 310.094 22.1373 309.937 22.343 309.713L52.3141 277.025C52.7675 276.532 53.3183 276.138 53.9318 275.868C54.5452 275.598 55.2079 275.459 55.8781 275.458H214.256C216.339 275.455 218.336 274.627 219.809 273.154C221.282 271.682 222.111 269.685 222.113 267.602V210.502C222.111 208.419 221.282 206.422 219.809 204.95C218.336 203.477 216.339 202.649 214.256 202.646L9.06545 202.646Z" fill="#CCCCCC"/>
<path d="M324.247 206.729C323.871 206.729 323.499 206.65 323.156 206.498C322.812 206.345 322.503 206.123 322.25 205.845L292.279 173.157C291.939 172.787 291.526 172.491 291.066 172.289C290.605 172.087 290.108 171.982 289.606 171.981H131.228C128.824 171.978 126.52 171.023 124.821 169.324C123.121 167.625 122.165 165.321 122.162 162.918V105.817C122.165 103.414 123.121 101.111 124.821 99.4117C126.52 97.7126 128.824 96.7568 131.228 96.7542H336.418C338.822 96.7568 341.126 97.7126 342.825 99.4117C344.525 101.111 345.481 103.414 345.484 105.817V162.918C345.481 165.321 344.525 167.625 342.825 169.324C341.126 171.023 338.822 171.978 336.418 171.981H330.601C329.639 171.982 328.718 172.365 328.038 173.044C327.358 173.724 326.975 174.646 326.974 175.607V204.008C326.977 204.556 326.812 205.092 326.502 205.544C326.193 205.997 325.753 206.345 325.241 206.541C324.924 206.665 324.587 206.729 324.247 206.729V206.729ZM131.228 97.9618C129.145 97.9642 127.147 98.7926 125.674 100.265C124.201 101.738 123.373 103.735 123.37 105.817V162.918C123.373 165.001 124.201 166.997 125.674 168.47C127.147 169.943 129.145 170.771 131.228 170.773H289.606C290.276 170.774 290.938 170.914 291.552 171.184C292.165 171.453 292.716 171.847 293.169 172.341L323.141 205.029C323.346 205.253 323.615 205.41 323.912 205.479C324.208 205.548 324.519 205.526 324.803 205.416C325.087 205.305 325.33 205.112 325.502 204.861C325.674 204.609 325.766 204.312 325.766 204.008V175.607C325.768 174.326 326.277 173.097 327.184 172.191C328.09 171.285 329.319 170.775 330.601 170.773H336.418C338.501 170.771 340.499 169.943 341.972 168.47C343.445 166.997 344.273 165.001 344.276 162.918V105.817C344.273 103.735 343.445 101.738 341.972 100.265C340.499 98.7926 338.501 97.9642 336.418 97.9618L131.228 97.9618Z" fill="#3F3D56"/>
<path d="M22.2365 227.156C26.6175 227.156 30.1691 223.605 30.1691 219.225C30.1691 214.845 26.6175 211.295 22.2365 211.295C17.8554 211.295 14.3038 214.845 14.3038 219.225C14.3038 223.605 17.8554 227.156 22.2365 227.156Z" fill="#CCCCCC"/>
<path d="M205.001 263.109H18.3203C17.7642 263.109 17.2136 263 16.6997 262.788C16.1858 262.576 15.7188 262.264 15.3254 261.872C14.932 261.479 14.6199 261.012 14.407 260.499C14.1941 259.985 14.0845 259.435 14.0845 258.879C14.0845 258.323 14.1941 257.773 14.407 257.259C14.6199 256.746 14.932 256.279 15.3254 255.886C15.7188 255.493 16.1858 255.182 16.6997 254.97C17.2136 254.757 17.7642 254.649 18.3203 254.649H205.001C206.123 254.649 207.199 255.095 207.993 255.888C208.786 256.681 209.232 257.757 209.232 258.879C209.232 260.001 208.786 261.077 207.993 261.87C207.199 262.663 206.123 263.109 205.001 263.109Z" fill="#CCCCCC"/>
<path d="M144.185 245.132H18.3203C17.7642 245.133 17.2136 245.024 16.6997 244.812C16.1858 244.599 15.7188 244.288 15.3254 243.895C14.932 243.502 14.6199 243.036 14.407 242.522C14.1941 242.009 14.0845 241.458 14.0845 240.903C14.0845 240.347 14.1941 239.796 14.407 239.283C14.6199 238.769 14.932 238.303 15.3254 237.91C15.7188 237.517 16.1858 237.206 16.6997 236.993C17.2136 236.781 17.7642 236.672 18.3203 236.673H144.185C144.741 236.672 145.291 236.781 145.805 236.993C146.319 237.206 146.786 237.517 147.179 237.91C147.573 238.303 147.885 238.769 148.098 239.283C148.311 239.796 148.42 240.347 148.42 240.903C148.42 241.458 148.311 242.009 148.098 242.522C147.885 243.036 147.573 243.502 147.179 243.895C146.786 244.288 146.319 244.599 145.805 244.812C145.291 245.024 144.741 245.133 144.185 245.132Z" fill="#CCCCCC"/>
<path d="M144.399 121.943C148.78 121.943 152.332 118.392 152.332 114.012C152.332 109.632 148.78 106.082 144.399 106.082C140.018 106.082 136.466 109.632 136.466 114.012C136.466 118.392 140.018 121.943 144.399 121.943Z" fill="#3F3D56"/>
<path d="M327.164 157.895H140.483C139.361 157.895 138.284 157.45 137.491 156.656C136.698 155.863 136.252 154.787 136.252 153.665C136.252 152.544 136.698 151.468 137.491 150.675C138.284 149.881 139.361 149.436 140.483 149.436H327.164C328.286 149.436 329.362 149.881 330.155 150.675C330.949 151.468 331.394 152.544 331.394 153.665C331.394 154.787 330.949 155.863 330.155 156.656C329.362 157.45 328.286 157.895 327.164 157.895V157.895Z" fill="#8E44AD"/>
<path d="M266.347 139.919H140.483C139.927 139.92 139.376 139.811 138.862 139.599C138.348 139.386 137.881 139.075 137.488 138.682C137.094 138.289 136.782 137.823 136.569 137.309C136.356 136.796 136.247 136.245 136.247 135.689C136.247 135.134 136.356 134.583 136.569 134.07C136.782 133.556 137.094 133.09 137.488 132.697C137.881 132.304 138.348 131.992 138.862 131.78C139.376 131.568 139.927 131.459 140.483 131.46H266.347C266.903 131.459 267.454 131.568 267.967 131.78C268.481 131.992 268.948 132.304 269.342 132.697C269.735 133.09 270.047 133.556 270.26 134.07C270.473 134.583 270.583 135.134 270.583 135.689C270.583 136.245 270.473 136.796 270.26 137.309C270.047 137.823 269.735 138.289 269.342 138.682C268.948 139.075 268.481 139.386 267.967 139.599C267.454 139.811 266.903 139.92 266.347 139.919Z" fill="#8E44AD"/>
<path d="M327.082 217.599C327.263 216.73 327.633 215.911 328.165 215.2C328.697 214.49 329.379 213.904 330.161 213.485C330.944 213.066 331.809 212.824 332.696 212.776C333.582 212.727 334.469 212.873 335.293 213.205L349.462 196.927L352.472 207.729L338.555 221.53C337.907 222.877 336.787 223.94 335.408 224.516C334.029 225.093 332.486 225.144 331.072 224.659C329.658 224.175 328.47 223.188 327.735 221.887C327 220.586 326.767 219.06 327.082 217.599V217.599Z" fill="#FFB8B8"/>
<path d="M404.848 141.215C413.041 141.215 419.683 134.575 419.683 126.384C419.683 118.193 413.041 111.553 404.848 111.553C396.655 111.553 390.014 118.193 390.014 126.384C390.014 134.575 396.655 141.215 404.848 141.215Z" fill="#FFB8B8"/>
<path d="M387.42 330.525L380.016 330.525L376.493 301.97L387.422 301.971L387.42 330.525Z" fill="#FFB8B8"/>
<path d="M389.309 337.702L365.433 337.701V337.399C365.433 336.179 365.674 334.97 366.141 333.843C366.608 332.716 367.292 331.692 368.155 330.829C369.018 329.966 370.043 329.282 371.17 328.815C372.298 328.348 373.506 328.108 374.726 328.108H374.727L389.31 328.108L389.309 337.702Z" fill="#2F2E41"/>
<path d="M409.768 338.375L402.364 338.375L401.338 310.503L409.77 309.821L409.768 338.375Z" fill="#FFB8B8"/>
<path d="M411.657 345.552L387.781 345.551V345.249C387.781 344.029 388.021 342.821 388.488 341.693C388.955 340.566 389.64 339.542 390.503 338.679C391.366 337.816 392.39 337.132 393.518 336.665C394.645 336.198 395.854 335.958 397.074 335.958H397.075L411.657 335.959L411.657 345.552Z" fill="#2F2E41"/>
<path d="M407.662 333.164L401.896 332.486C401.242 332.407 400.639 332.095 400.197 331.606C399.756 331.117 399.507 330.485 399.496 329.826L398.415 254.745C398.412 254.533 398.334 254.328 398.196 254.168C398.057 254.007 397.866 253.9 397.656 253.865C397.447 253.831 397.231 253.871 397.048 253.979C396.866 254.087 396.726 254.256 396.655 254.457L388.655 277.04L389.227 319.37C389.237 320.069 388.977 320.744 388.501 321.256C388.026 321.768 387.371 322.077 386.673 322.119L379.145 322.439C378.457 322.478 377.779 322.255 377.247 321.816C376.716 321.376 376.37 320.752 376.28 320.069L372.348 272.184L372.345 272.154L378.311 222.144L423.117 225.385L410.679 330.784C410.6 331.445 410.282 332.053 409.785 332.495C409.288 332.937 408.647 333.182 407.981 333.183C407.875 333.183 407.768 333.177 407.662 333.164Z" fill="#2F2E41"/>
<path d="M378.502 226.577C378.1 226.363 377.759 226.05 377.51 225.668C377.261 225.286 377.114 224.847 377.08 224.392C377.08 224.392 381.109 199.343 382.586 198.873L379.355 172.084C378.968 168.817 379.238 165.505 380.149 162.344C381.059 159.182 382.593 156.234 384.659 153.673C386.648 151.188 389.12 149.132 391.926 147.629C394.733 146.126 397.814 145.207 400.985 144.928C401.437 144.887 401.886 144.856 402.333 144.835C406.155 144.63 409.971 145.351 413.455 146.937C416.939 148.522 419.989 150.925 422.345 153.942C424.789 156.984 426.462 160.572 427.221 164.399C427.98 168.227 427.803 172.181 426.706 175.925L424.894 182.229V226.283C424.892 226.713 424.789 227.136 424.594 227.52C424.399 227.903 424.116 228.235 423.769 228.489C418.127 232.629 411.752 234.092 405.556 234.092C393.832 234.092 382.751 228.851 378.502 226.577Z" fill="#8E44AD"/>
<path d="M343.719 218.516L335.926 212.69C335.62 212.461 335.366 212.171 335.18 211.838C334.994 211.504 334.881 211.136 334.847 210.756C334.812 210.375 334.859 209.992 334.983 209.632C335.107 209.271 335.305 208.94 335.566 208.661L381.99 158.859C383.48 157.275 385.49 156.277 387.653 156.047C389.816 155.817 391.991 156.37 393.781 157.606L393.781 157.606C394.872 158.367 395.781 159.358 396.445 160.51C397.109 161.661 397.511 162.945 397.622 164.27C397.733 165.595 397.551 166.928 397.088 168.174C396.625 169.42 395.893 170.549 394.944 171.48L347.25 218.279C346.831 218.694 346.288 218.961 345.703 219.038C345.118 219.115 344.524 218.999 344.012 218.707C343.91 218.649 343.812 218.585 343.719 218.516V218.516Z" fill="#8E44AD"/>
<path d="M403.362 211.922C403.703 211.102 404.219 210.367 404.875 209.768C405.53 209.169 406.309 208.722 407.156 208.456C408.004 208.191 408.899 208.115 409.779 208.233C410.659 208.351 411.503 208.661 412.25 209.14L429.214 195.799L430.15 206.973L413.897 217.929C413.009 219.131 411.71 219.965 410.247 220.274C408.785 220.582 407.259 220.344 405.961 219.603C404.662 218.863 403.68 217.672 403.202 216.256C402.723 214.84 402.78 213.298 403.362 211.922V211.922Z" fill="#FFB8B8"/>
<path d="M418.546 217.13C418.097 216.99 417.692 216.736 417.372 216.392C417.052 216.048 416.827 215.626 416.72 215.168L415.006 207.973C414.881 207.462 414.908 206.925 415.086 206.43C415.263 205.935 415.582 205.503 416.003 205.188L427.533 192.722L410.574 166.578C409.29 164.998 408.566 163.037 408.516 161.002C408.466 158.967 409.091 156.973 410.295 155.331C411.254 154.023 412.542 152.991 414.029 152.341C415.516 151.691 417.148 151.445 418.76 151.629C420.372 151.812 421.907 152.418 423.21 153.386C424.512 154.354 425.535 155.648 426.176 157.139L441.943 187.82C443.51 190.868 443.901 194.387 443.041 197.704C442.181 201.022 440.13 203.908 437.279 205.812L421.167 216.572C420.674 217.013 420.035 217.258 419.373 217.258C419.092 217.258 418.813 217.215 418.546 217.13V217.13Z" fill="#8E44AD"/>
<path d="M415.84 139.642C415.491 139.852 415.098 139.979 414.691 140.012C414.285 140.046 413.877 139.985 413.497 139.835C413.118 139.686 412.779 139.451 412.505 139.149C412.231 138.847 412.03 138.486 411.919 138.094L411.909 138.057C411.607 136.823 411.846 135.531 411.924 134.263C412.002 132.995 411.87 131.603 411.002 130.676C409.383 128.947 406.524 129.884 404.194 129.457C402.829 129.16 401.619 128.376 400.79 127.251C399.962 126.127 399.572 124.739 399.693 123.348C399.724 123.084 399.775 122.82 399.832 122.556C399.974 121.887 399.959 121.195 399.788 120.533C399.617 119.871 399.295 119.258 398.848 118.741C398.4 118.224 397.839 117.819 397.207 117.555C396.576 117.292 395.893 117.179 395.211 117.224C392.859 117.371 390.324 118.097 388.368 116.366C387.651 115.683 387.151 114.803 386.931 113.838C386.71 112.872 386.779 111.863 387.128 110.936C388.222 107.724 391.354 106.028 394.457 105.088C398.296 103.957 402.338 103.696 406.29 104.322C410.242 104.949 414.004 106.448 417.304 108.711C419.275 110.084 421.117 111.812 421.966 114.059C422.815 116.305 422.427 119.147 420.548 120.643C422.018 122.183 423.059 124.083 423.564 126.152C424.069 128.22 424.021 130.386 423.426 132.43C422.51 135.437 418.078 138.34 415.84 139.642Z" fill="#2F2E41"/>
<path d="M509 345.396C509 345.556 508.936 345.71 508.823 345.823C508.71 345.936 508.556 346 508.396 346H278.276C278.116 346 277.962 345.936 277.849 345.823C277.736 345.71 277.672 345.556 277.672 345.396C277.672 345.236 277.736 345.083 277.849 344.969C277.962 344.856 278.116 344.792 278.276 344.792H508.396C508.556 344.793 508.71 344.857 508.823 344.97C508.936 345.083 509 345.236 509 345.396V345.396Z" fill="#3F3D56"/>
</g>
<defs>
<clipPath id="clip0">
<rect width="509" height="346" fill="white"/>
</clipPath>
</defs>
</svg>
