<svg width="331" height="277" viewBox="0 0 331 277" fill="none" xmlns="http://www.w3.org/2000/svg">
<path d="M92.9498 62.6746C106.45 62.6746 117.394 51.7366 117.394 38.2439C117.394 24.7511 106.45 13.8131 92.9498 13.8131C79.4496 13.8131 68.5055 24.7511 68.5055 38.2439C68.5055 51.7366 79.4496 62.6746 92.9498 62.6746Z" fill="#FFFFA5"/>
<path d="M235.69 45.367H206.369V18.7264L235.69 45.367Z" fill="#3F3D56"/>
<path d="M239.116 44.4948H91.6116V248.167H239.116V44.4948Z" fill="#E6E6E6"/>
<path d="M123.681 58.7751H106.328V95.321H123.681V58.7751Z" fill="white"/>
<path d="M150.523 58.7751H133.17V95.321H150.523V58.7751Z" fill="white"/>
<path d="M121.394 110.574H104.041V147.12H121.394V110.574Z" fill="white"/>
<path d="M150.523 110.574H133.17V147.12H150.523V110.574Z" fill="white"/>
<path d="M121.394 158.502H104.041V195.048H121.394V158.502Z" fill="white"/>
<path d="M149.869 157.849H132.516V194.395H149.869V157.849Z" fill="white"/>
<path d="M175.092 211.703H157.738V248.249H175.092V211.703Z" fill="#CCCCCC"/>
<path d="M201.31 157.849H183.957V194.395H201.31V157.849Z" fill="white"/>
<path d="M230.439 157.849H213.086V194.395H230.439V157.849Z" fill="white"/>
<path d="M201.963 110.187H184.61V146.733H201.963V110.187Z" fill="white"/>
<path d="M231.092 110.187H213.739V146.733H231.092V110.187Z" fill="white"/>
<path d="M201.963 58.7751H184.61V95.321H201.963V58.7751Z" fill="white"/>
<path d="M231.092 58.7751H213.739V95.321H231.092V58.7751Z" fill="white"/>
<path d="M239.116 91.5708H91.6116V97.1456H239.116V91.5708Z" fill="#3F3D56"/>
<path d="M239.116 134.93H91.6116V138.027H239.116V134.93Z" fill="#3F3D56"/>
<path d="M239.116 125.02H91.6116V128.117H239.116V125.02Z" fill="#3F3D56"/>
<path d="M106.176 197.492V172.715H103.077V197.492H106.176Z" fill="#3F3D56"/>
<path d="M123.529 197.492V172.715H120.431V197.492H123.529Z" fill="#3F3D56"/>
<path d="M140.883 197.492V172.715H137.784V197.492H140.883Z" fill="#3F3D56"/>
<path d="M158.236 197.492V172.715H155.138V197.492H158.236Z" fill="#3F3D56"/>
<path d="M175.59 197.492V172.715H172.491V197.492H175.59Z" fill="#3F3D56"/>
<path d="M192.943 197.492V172.715H189.844V197.492H192.943Z" fill="#3F3D56"/>
<path d="M210.297 197.492V172.715H207.198V197.492H210.297Z" fill="#3F3D56"/>
<path d="M227.65 197.492V172.715H224.551V197.492H227.65Z" fill="#3F3D56"/>
<path d="M106.486 150.416V125.639H103.387V150.416H106.486Z" fill="#3F3D56"/>
<path d="M123.839 150.416V125.639H120.741V150.416H123.839Z" fill="#3F3D56"/>
<path d="M141.193 150.416V125.639H138.094V150.416H141.193Z" fill="#3F3D56"/>
<path d="M158.546 150.416V125.639H155.447V150.416H158.546Z" fill="#3F3D56"/>
<path d="M175.9 150.416V125.639H172.801V150.416H175.9Z" fill="#3F3D56"/>
<path d="M193.253 150.416V125.639H190.154V150.416H193.253Z" fill="#3F3D56"/>
<path d="M210.607 150.416V125.639H207.508V150.416H210.607Z" fill="#3F3D56"/>
<path d="M227.96 150.416V125.639H224.861V150.416H227.96Z" fill="#3F3D56"/>
<path d="M106.486 95.2873V70.5105H103.387V95.2873H106.486Z" fill="#3F3D56"/>
<path d="M123.839 95.2873V70.5105H120.74V95.2873H123.839Z" fill="#3F3D56"/>
<path d="M141.193 95.2873V70.5105H138.094V95.2873H141.193Z" fill="#3F3D56"/>
<path d="M158.546 95.2873V70.5105H155.447V95.2873H158.546Z" fill="#3F3D56"/>
<path d="M175.9 95.2872V70.5104H172.801V95.2872H175.9Z" fill="#3F3D56"/>
<path d="M193.253 95.2873V70.5105H190.154V95.2873H193.253Z" fill="#3F3D56"/>
<path d="M210.606 95.2872V70.5104H207.508V95.2872H210.606Z" fill="#3F3D56"/>
<path d="M227.96 95.2873V70.5105H224.861V95.2873H227.96Z" fill="#3F3D56"/>
<path d="M239.116 79.1824H91.6116V82.2795H239.116V79.1824Z" fill="#3F3D56"/>
<path d="M239.116 69.2716H91.6116V72.3687H239.116V69.2716Z" fill="#3F3D56"/>
<path d="M239.116 145.46H91.6116V151.035H239.116V145.46Z" fill="#3F3D56"/>
<path d="M245.903 42.2031H84.8239V50.5104H245.903V42.2031Z" fill="#3F3D56"/>
<path d="M123.714 219.606V211.703H114.225V219.606H122.923H123.714Z" fill="white"/>
<path d="M122.923 225.927H114.225V233.83H123.714V225.927H122.923Z" fill="white"/>
<path d="M139.528 211.703H130.039V219.605H139.528V211.703Z" fill="white"/>
<path d="M139.528 225.927H130.039V233.83H139.528V225.927Z" fill="white"/>
<path d="M201.101 219.606V211.703H191.613V219.606H200.31H201.101Z" fill="white"/>
<path d="M200.31 225.927H191.613V233.83H201.101V225.927H200.31Z" fill="white"/>
<path d="M216.915 211.703H207.426V219.605H216.915V211.703Z" fill="white"/>
<path d="M216.915 225.927H207.426V233.83H216.915V225.927Z" fill="white"/>
<path d="M239.116 192.536H91.6116V198.111H239.116V192.536Z" fill="#3F3D56"/>
<path d="M239.116 182.625H91.6116V185.723H239.116V182.625Z" fill="#3F3D56"/>
<path d="M239.116 172.715H91.6116V175.812H239.116V172.715Z" fill="#3F3D56"/>
<path d="M136.267 245.512C136.268 245.34 136.265 245.168 136.26 244.997C136.128 240.431 131.596 239.193 129.166 241.355C128.399 240.689 127.418 240.323 126.403 240.323C125.387 240.323 124.406 240.689 123.639 241.355C121.199 239.227 116.757 240.377 116.611 244.892C116.605 245.062 116.602 245.234 116.602 245.406C116.609 246.356 116.667 247.304 116.776 248.247H136.095C136.2 247.339 136.258 246.426 136.267 245.512Z" fill="#8E44AD"/>
<path d="M213.05 245.512C213.05 245.34 213.048 245.168 213.043 244.997C212.91 240.431 208.378 239.193 205.948 241.355C205.182 240.689 204.2 240.323 203.185 240.323C202.169 240.323 201.188 240.689 200.421 241.355C197.981 239.227 193.54 240.377 193.393 244.892C193.387 245.062 193.384 245.234 193.384 245.406C193.391 246.356 193.449 247.304 193.558 248.247H212.878C212.983 247.339 213.04 246.426 213.05 245.512Z" fill="#8E44AD"/>
<path d="M319.004 248.556H316.016L317.012 190.224H318.008L319.004 248.556Z" fill="#E6E6E6"/>
<path d="M321.493 153.5L326.316 146.051C324.886 142.102 323.234 138.237 321.368 134.474L318.25 136.992L320.719 133.178C318.366 128.548 316.514 125.631 316.514 125.631C316.514 125.631 306.841 140.865 303.61 156.994L309.799 166.554L302.947 161.023C302.703 162.902 302.578 164.794 302.571 166.689C302.571 185.791 308.814 201.277 316.514 201.277C324.214 201.277 330.456 185.791 330.456 166.689C330.456 160.767 329.116 154.571 327.267 148.84L321.493 153.5Z" fill="#16A085"/>
<path d="M308.483 166.968H244.742V213.875H244.781V223.214L254.125 213.875H308.483V166.968Z" fill="#8E44AD"/>
<path d="M227.875 267.147H171.324V269.381H227.875V267.147Z" fill="#E6E6E6"/>
<path d="M331 267.147H274.143V269.381H331V267.147Z" fill="#E6E6E6"/>
<path d="M125.13 267.147H68.5055V269.381H125.13V267.147Z" fill="#E6E6E6"/>
<path d="M330.767 248.198H0V248.821H330.767V248.198Z" fill="#3F3D56"/>
<path d="M259.428 258.956L266.087 258.959L266.088 257.903L259.429 257.899L259.428 258.956Z" fill="#3F3D56"/>
<path d="M211.281 258.138L212.655 258.455L264.872 258.483L265.342 257.39C266.161 255.514 266.442 253.448 266.154 251.422C265.929 249.912 265.365 248.412 264.085 247.76L261.768 232.335L232.879 232.283L221.702 241.293C221.702 241.293 216.429 241.198 213.565 244.762C212.532 246.087 211.922 247.693 211.814 249.369L211.701 251.223L211.281 258.138Z" fill="#8E44AD"/>
<path d="M222.75 264.324C226.311 264.324 229.198 261.439 229.198 257.88C229.198 254.32 226.311 251.435 222.75 251.435C219.189 251.435 216.302 254.32 216.302 257.88C216.302 261.439 219.189 264.324 222.75 264.324Z" fill="#3F3D56"/>
<path d="M222.75 261.271C224.624 261.271 226.144 259.753 226.144 257.88C226.144 256.006 224.624 254.488 222.75 254.488C220.876 254.488 219.356 256.006 219.356 257.88C219.356 259.753 220.876 261.271 222.75 261.271Z" fill="#CCCCCC"/>
<path d="M254.566 264.341C258.127 264.341 261.014 261.456 261.014 257.897C261.014 254.337 258.127 251.452 254.566 251.452C251.005 251.452 248.119 254.337 248.119 257.897C248.119 261.456 251.005 264.341 254.566 264.341Z" fill="#3F3D56"/>
<path d="M254.566 261.288C256.441 261.288 257.96 259.77 257.96 257.896C257.96 256.023 256.441 254.505 254.566 254.505C252.692 254.505 251.173 256.023 251.173 257.896C251.173 259.77 252.692 261.288 254.566 261.288Z" fill="#CCCCCC"/>
<path d="M226.142 240.24L241.74 240.247H243.644L246.859 240.249V240.014L246.861 237.189L246.863 234.017H244.725L242.821 234.015L239.448 234.012H237.544L233.65 234.01L226.142 240.24Z" fill="white"/>
<path d="M249.397 240.251L257.64 240.255L257.643 238.639V235.814L257.645 234.023H256.438L254.534 234.021L249.399 234.019L249.397 240.251Z" fill="white"/>
<path d="M245.798 246.906L246.855 246.907L246.856 244.899L245.799 244.899L245.798 246.906Z" fill="#3F3D56"/>
<path d="M230.37 243.095L230.37 242.038L228.362 242.037L228.361 243.094L230.37 243.095Z" fill="#3F3D56"/>
<path d="M229.629 242.501L229.513 242.501C228.927 242.501 228.365 242.268 227.951 241.854C227.537 241.44 227.304 240.878 227.305 240.292C227.305 239.707 227.538 239.145 227.953 238.731C228.367 238.318 228.929 238.085 229.515 238.086L229.631 238.086L229.629 242.501Z" fill="#3F3D56"/>
<path d="M211.701 251.223C212.501 251.31 213.305 251.112 213.973 250.665C214.64 250.217 215.129 249.548 215.351 248.776C215.574 248.004 215.517 247.178 215.19 246.444C214.864 245.709 214.288 245.114 213.565 244.762C212.532 246.087 211.922 247.693 211.814 249.369L211.701 251.223Z" fill="#3F3D56"/>
<path d="M242.821 234.015L246.859 240.014L246.861 237.189L244.725 234.017L242.821 234.015Z" fill="#F2F2F2"/>
<path d="M254.534 234.021L257.643 238.639V235.814L256.438 234.023L254.534 234.021Z" fill="#F2F2F2"/>
<path d="M237.544 234.012L241.74 240.246H243.644L239.448 234.012H237.544Z" fill="#F2F2F2"/>
<path d="M152.886 0.390297L152.843 0.413755C152.377 0.668126 151.856 0.802328 151.325 0.804187C150.795 0.806047 150.272 0.675503 149.805 0.424401C149.778 0.409888 149.752 0.395557 149.725 0.381409C149.258 0.132213 148.736 0.00272956 148.207 0.00455678C147.677 0.006384 147.156 0.139465 146.691 0.391879L146.651 0.413755C146.185 0.668126 145.664 0.802328 145.133 0.804187C144.603 0.806047 144.081 0.675503 143.613 0.424401C143.585 0.409334 143.558 0.394464 143.53 0.379787C143.068 0.131733 142.553 0.00145567 142.029 0.000528803C141.504 -0.000398069 140.988 0.128055 140.526 0.374475C139.113 1.13489 137.203 2.43501 137.211 3.90329C137.212 3.96135 137.215 4.01936 137.221 4.07709C137.386 5.6019 142.362 5.99043 145.095 5.27182C147.133 5.73653 149.25 5.73653 151.287 5.27182C154.009 6.00193 159.087 5.58364 159.235 4.04133C159.241 3.98354 159.243 3.92551 159.243 3.86746C159.235 2.39838 157.308 1.11189 155.886 0.362181C155.422 0.119675 154.906 -0.00464328 154.382 0.000261786C153.859 0.00516685 153.345 0.139142 152.886 0.390297Z" fill="#E6E6E6"/>
<path d="M289.977 50.7344L289.934 50.7579C289.469 51.0122 288.947 51.1464 288.417 51.1483C287.886 51.1502 287.364 51.0196 286.897 50.7685C286.87 50.754 286.843 50.7397 286.816 50.7255C286.349 50.4763 285.828 50.3468 285.298 50.3487C284.769 50.3505 284.248 50.4836 283.782 50.736L283.742 50.7579C283.277 51.0122 282.755 51.1464 282.225 51.1483C281.694 51.1502 281.172 51.0196 280.705 50.7685C280.677 50.7535 280.649 50.7386 280.622 50.7239C280.16 50.4759 279.644 50.3456 279.12 50.3446C278.596 50.3437 278.08 50.4722 277.617 50.7186C276.204 51.479 274.294 52.7791 274.303 54.2474C274.303 54.3055 274.307 54.3635 274.313 54.4212C274.477 55.946 279.453 56.3345 282.187 55.6159C284.225 56.0806 286.341 56.0806 288.379 55.6159C291.101 56.3461 296.178 55.9278 296.326 54.3854C296.332 54.3277 296.335 54.2696 296.334 54.2116C296.326 52.7425 294.399 51.456 292.977 50.7063C292.514 50.4638 291.997 50.3395 291.474 50.3444C290.95 50.3493 290.436 50.4833 289.977 50.7344Z" fill="#E6E6E6"/>
<path d="M49.907 53.5447L49.8639 53.5682C49.3985 53.8225 48.877 53.9567 48.3466 53.9586C47.8162 53.9605 47.2937 53.8299 46.8265 53.5788C46.7996 53.5643 46.7728 53.55 46.7462 53.5358C46.2791 53.2866 45.7574 53.1571 45.2279 53.159C44.6984 53.1608 44.1776 53.2939 43.7123 53.5463L43.6721 53.5682C43.2067 53.8225 42.6851 53.9567 42.1547 53.9586C41.6243 53.9605 41.1018 53.8299 40.6347 53.5788C40.6067 53.5637 40.5789 53.5489 40.5513 53.5342C40.0897 53.2861 39.5739 53.1559 39.0498 53.1549C38.5257 53.154 38.0095 53.2825 37.547 53.5289C36.1342 54.2893 34.2243 55.5894 34.2327 57.0577C34.233 57.1158 34.2363 57.1738 34.2426 57.2315C34.4068 58.7563 39.383 59.1448 42.1167 58.4262C44.1544 58.891 46.2708 58.891 48.3085 58.4262C51.0305 59.1564 56.1079 58.7381 56.2563 57.1958C56.2619 57.138 56.2645 57.0799 56.2642 57.0219C56.2558 55.5528 54.329 54.2663 52.9073 53.5166C52.4435 53.2741 51.927 53.1498 51.4036 53.1547C50.8802 53.1596 50.3661 53.2936 49.907 53.5447Z" fill="#E6E6E6"/>
<path d="M41.0359 270.56H34.3766V271.617H41.0359V270.56Z" fill="#3F3D56"/>
<path d="M89.1833 270.797L87.8093 271.114L35.5922 271.142L35.1227 270.049C34.3038 268.173 34.0227 266.107 34.3109 264.081C34.5357 262.571 35.0993 261.071 36.3793 260.419L38.6965 244.994L67.5855 244.942L78.7626 253.952C78.7626 253.952 84.035 253.857 86.8993 257.421C87.9326 258.747 88.5427 260.352 88.6501 262.029L88.7631 263.883L89.1833 270.797Z" fill="#8E44AD"/>
<path d="M77.7145 276.983C81.2755 276.983 84.1623 274.098 84.1623 270.539C84.1623 266.98 81.2755 264.094 77.7145 264.094C74.1534 264.094 71.2666 266.98 71.2666 270.539C71.2666 274.098 74.1534 276.983 77.7145 276.983Z" fill="#3F3D56"/>
<path d="M77.7144 273.93C79.5887 273.93 81.108 272.412 81.108 270.539C81.108 268.665 79.5887 267.147 77.7144 267.147C75.8402 267.147 74.3208 268.665 74.3208 270.539C74.3208 272.412 75.8402 273.93 77.7144 273.93Z" fill="#CCCCCC"/>
<path d="M45.8979 277C49.459 277 52.3458 274.115 52.3458 270.556C52.3458 266.997 49.459 264.111 45.8979 264.111C42.3369 264.111 39.4501 266.997 39.4501 270.556C39.4501 274.115 42.3369 277 45.8979 277Z" fill="#3F3D56"/>
<path d="M45.8979 273.948C47.7721 273.948 49.2915 272.429 49.2915 270.556C49.2915 268.683 47.7721 267.164 45.8979 267.164C44.0236 267.164 42.5043 268.683 42.5043 270.556C42.5043 272.429 44.0236 273.948 45.8979 273.948Z" fill="#CCCCCC"/>
<path d="M74.3219 252.899L58.724 252.906H56.82L53.6054 252.908V252.674L53.6032 249.848L53.601 246.676H55.7397L57.6437 246.674L61.0162 246.671H62.9202L66.8139 246.669L74.3219 252.899Z" fill="white"/>
<path d="M51.0673 252.91L42.8239 252.915L42.8217 251.298V248.473L42.8195 246.683H44.0265L45.9305 246.681L51.0651 246.678L51.0673 252.91Z" fill="white"/>
<path d="M54.6648 257.557H53.6078V259.564H54.6648V257.557Z" fill="#3F3D56"/>
<path d="M72.1042 255.752L72.1036 254.695L70.0953 254.696L70.0958 255.753L72.1042 255.752Z" fill="#3F3D56"/>
<path d="M70.8344 250.744H70.9506C71.2407 250.744 71.528 250.801 71.796 250.912C72.0641 251.023 72.3076 251.186 72.5128 251.391C72.7179 251.596 72.8806 251.839 72.9916 252.107C73.1027 252.375 73.1598 252.662 73.1598 252.952C73.1598 253.538 72.9271 254.099 72.5128 254.513C72.0985 254.927 71.5365 255.16 70.9506 255.16H70.8344V250.744H70.8344Z" fill="#3F3D56"/>
<path d="M88.7631 263.883C87.9637 263.969 87.1593 263.772 86.4916 263.324C85.8239 262.876 85.3356 262.207 85.1129 261.435C84.8901 260.663 84.9472 259.837 85.274 259.103C85.6008 258.369 86.1763 257.773 86.8993 257.421C87.9325 258.747 88.5426 260.352 88.6501 262.029L88.7631 263.883Z" fill="#3F3D56"/>
<path d="M57.6436 246.674L53.6054 252.674L53.6031 249.848L55.7396 246.676L57.6436 246.674Z" fill="#F2F2F2"/>
<path d="M45.9304 246.681L42.8217 251.298V248.473L44.0264 246.683L45.9304 246.681Z" fill="#F2F2F2"/>
<path d="M62.9201 246.671L58.724 252.906H56.8199L61.0161 246.671H62.9201Z" fill="#F2F2F2"/>
<path d="M274.38 200.419L266.24 189.959L270.973 186.28L274.827 191.232L287.847 177.496L292.201 181.618L274.38 200.419Z" fill="white"/>
<path d="M2.36182 178.837H66.1034V225.744H66.0647V235.083L56.7205 225.744H2.36182V178.837Z" fill="#8E44AD"/>
<path d="M32.4258 213.405L24.286 202.945L29.0198 199.265L32.8736 204.218L45.8932 190.482L50.247 194.604L32.4258 213.405Z" fill="white"/>
</svg>
