<svg width="384" height="177" viewBox="0 0 384 177" fill="none" xmlns="http://www.w3.org/2000/svg">
<g clip-path="url(#clip0)">
<path d="M34.4651 168.506L33.9482 168.312C33.8346 168.27 22.53 163.953 17.2344 154.166C11.9386 144.379 14.5317 132.594 14.5585 132.477L14.6806 131.94L15.1972 132.133C15.3108 132.176 26.6152 136.492 31.911 146.279C37.2068 156.067 34.6137 167.851 34.5869 167.969L34.4651 168.506ZM18.0824 153.711C22.5596 161.986 31.4929 166.228 33.7563 167.196C34.1866 164.778 35.5362 155.002 31.063 146.735C26.5903 138.469 17.6535 134.22 15.3891 133.25C14.9586 135.669 13.6094 145.444 18.0824 153.711Z" fill="#3F3D56"/>
<path d="M21.2814 150.733C30.7983 156.439 34.4635 167.773 34.4635 167.773C34.4635 167.773 22.6989 169.855 13.1821 164.149C3.66523 158.443 0 147.11 0 147.11C0 147.11 11.7646 145.027 21.2814 150.733Z" fill="#D0CDE1"/>
<path d="M325.852 2.1798H219.729V0H171.608V2.1798H65.0471C64.1044 2.1798 63.171 2.36485 62.3 2.72436C61.4291 3.08388 60.6378 3.61083 59.9712 4.27513C59.3046 4.93942 58.7758 5.72806 58.4151 6.596C58.0543 7.46395 57.8687 8.39421 57.8687 9.33367V154.152C57.8687 156.049 58.625 157.869 59.9712 159.21C61.3174 160.552 63.1433 161.305 65.0471 161.305H325.852C326.795 161.305 327.728 161.12 328.599 160.761C329.47 160.401 330.262 159.874 330.928 159.21C331.595 158.546 332.123 157.757 332.484 156.889C332.845 156.021 333.031 155.091 333.031 154.152V9.33367C333.031 8.39421 332.845 7.46395 332.484 6.596C332.123 5.72805 331.595 4.93942 330.928 4.27512C330.262 3.61082 329.47 3.08387 328.599 2.72436C327.728 2.36484 326.795 2.1798 325.852 2.1798Z" fill="#3F3D56"/>
<path d="M323.407 14.8228H67.4928V158.69H323.407V14.8228Z" fill="#8E44AD"/>
<path d="M195.231 10.899C196.681 10.899 197.856 9.72789 197.856 8.28324C197.856 6.8386 196.681 5.66748 195.231 5.66748C193.781 5.66748 192.606 6.8386 192.606 8.28324C192.606 9.72789 193.781 10.899 195.231 10.899Z" fill="#8E44AD"/>
<path d="M308.715 33.1329H296.584V21.0435H308.715V33.1329ZM297.112 32.6072H308.188V21.5691H297.112V32.6072Z" fill="#3F3D56"/>
<path d="M340.216 156.074H315.241V154.281C315.241 154.234 315.231 154.188 315.213 154.145C315.195 154.101 315.169 154.062 315.136 154.029C315.103 153.996 315.064 153.97 315.02 153.952C314.977 153.934 314.931 153.925 314.884 153.925H306.321C306.274 153.925 306.227 153.934 306.184 153.952C306.141 153.97 306.102 153.996 306.068 154.029C306.035 154.062 306.009 154.101 305.991 154.145C305.973 154.188 305.964 154.234 305.964 154.281V156.074H300.612V154.281C300.612 154.234 300.603 154.188 300.585 154.145C300.567 154.101 300.541 154.062 300.508 154.029C300.474 153.996 300.435 153.97 300.392 153.952C300.348 153.934 300.302 153.925 300.255 153.925H291.692C291.645 153.925 291.599 153.934 291.556 153.952C291.512 153.97 291.473 153.996 291.44 154.029C291.407 154.062 291.38 154.101 291.363 154.145C291.345 154.188 291.335 154.234 291.335 154.281V156.074H285.984V154.281C285.984 154.234 285.974 154.188 285.956 154.145C285.938 154.101 285.912 154.062 285.879 154.029C285.846 153.996 285.807 153.97 285.763 153.952C285.72 153.934 285.674 153.925 285.627 153.925H277.064C277.017 153.925 276.97 153.934 276.927 153.952C276.884 153.97 276.845 153.996 276.811 154.029C276.778 154.062 276.752 154.101 276.734 154.145C276.716 154.188 276.707 154.234 276.707 154.281V156.074H271.355V154.281C271.355 154.234 271.346 154.188 271.328 154.145C271.31 154.101 271.284 154.062 271.25 154.029C271.217 153.996 271.178 153.97 271.135 153.952C271.091 153.934 271.045 153.925 270.998 153.925H262.435C262.388 153.925 262.342 153.934 262.299 153.952C262.255 153.97 262.216 153.996 262.183 154.029C262.15 154.062 262.123 154.101 262.106 154.145C262.088 154.188 262.078 154.234 262.078 154.281V156.074H256.726V154.281C256.726 154.234 256.717 154.188 256.699 154.145C256.681 154.101 256.655 154.062 256.622 154.029C256.589 153.996 256.55 153.97 256.506 153.952C256.463 153.934 256.417 153.925 256.37 153.925H247.807C247.76 153.925 247.713 153.934 247.67 153.952C247.627 153.97 247.588 153.996 247.554 154.029C247.521 154.062 247.495 154.101 247.477 154.145C247.459 154.188 247.45 154.234 247.45 154.281V156.074H242.098V154.281C242.098 154.234 242.089 154.188 242.071 154.145C242.053 154.101 242.027 154.062 241.993 154.029C241.96 153.996 241.921 153.97 241.878 153.952C241.834 153.934 241.788 153.925 241.741 153.925H233.178C233.131 153.925 233.085 153.934 233.042 153.952C232.998 153.97 232.959 153.996 232.926 154.029C232.893 154.062 232.866 154.101 232.848 154.145C232.831 154.188 232.821 154.234 232.821 154.281V156.074H227.469V154.281C227.469 154.234 227.46 154.188 227.442 154.145C227.424 154.101 227.398 154.062 227.365 154.029C227.332 153.996 227.292 153.97 227.249 153.952C227.206 153.934 227.16 153.925 227.113 153.925H160.036C159.989 153.925 159.942 153.934 159.899 153.952C159.856 153.97 159.816 153.996 159.783 154.029C159.75 154.062 159.724 154.101 159.706 154.145C159.688 154.188 159.679 154.234 159.679 154.281V156.074H154.327V154.281C154.327 154.234 154.318 154.188 154.3 154.145C154.282 154.101 154.255 154.062 154.222 154.029C154.189 153.996 154.15 153.97 154.107 153.952C154.063 153.934 154.017 153.925 153.97 153.925H145.407C145.36 153.925 145.314 153.934 145.27 153.952C145.227 153.97 145.188 153.996 145.155 154.029C145.122 154.062 145.095 154.101 145.077 154.145C145.059 154.188 145.05 154.234 145.05 154.281V156.074H139.698V154.281C139.698 154.234 139.689 154.188 139.671 154.145C139.653 154.101 139.627 154.062 139.594 154.029C139.561 153.996 139.521 153.97 139.478 153.952C139.435 153.934 139.388 153.925 139.342 153.925H130.779C130.732 153.925 130.685 153.934 130.642 153.952C130.599 153.97 130.559 153.996 130.526 154.029C130.493 154.062 130.467 154.101 130.449 154.145C130.431 154.188 130.422 154.234 130.422 154.281V156.074H125.07V154.281C125.07 154.234 125.061 154.188 125.043 154.145C125.025 154.101 124.998 154.062 124.965 154.029C124.932 153.996 124.893 153.97 124.85 153.952C124.806 153.934 124.76 153.925 124.713 153.925H116.15C116.103 153.925 116.057 153.934 116.013 153.952C115.97 153.97 115.931 153.996 115.898 154.029C115.865 154.062 115.838 154.101 115.82 154.145C115.802 154.188 115.793 154.234 115.793 154.281V156.074H110.441V154.281C110.441 154.234 110.432 154.188 110.414 154.145C110.396 154.101 110.37 154.062 110.337 154.029C110.304 153.996 110.264 153.97 110.221 153.952C110.178 153.934 110.131 153.925 110.085 153.925H101.521C101.475 153.925 101.428 153.934 101.385 153.952C101.342 153.97 101.302 153.996 101.269 154.029C101.236 154.062 101.21 154.101 101.192 154.145C101.174 154.188 101.165 154.234 101.165 154.281V156.074H95.8128V154.281C95.8128 154.234 95.8036 154.188 95.7856 154.145C95.7677 154.101 95.7414 154.062 95.7083 154.029C95.6752 153.996 95.6358 153.97 95.5925 153.952C95.5492 153.934 95.5028 153.925 95.456 153.925H86.893C86.8461 153.925 86.7997 153.934 86.7564 153.952C86.7131 153.97 86.6738 153.996 86.6407 154.029C86.6075 154.062 86.5812 154.101 86.5633 154.145C86.5454 154.188 86.5362 154.234 86.5362 154.281V156.074H81.1843V154.281C81.1843 154.234 81.175 154.188 81.1571 154.145C81.1392 154.101 81.1129 154.062 81.0798 154.029C81.0466 153.996 81.0073 153.97 80.964 153.952C80.9207 153.934 80.8743 153.925 80.8275 153.925H72.2644C72.2176 153.925 72.1712 153.934 72.1279 153.952C72.0846 153.97 72.0453 153.996 72.0121 154.029C71.979 154.062 71.9527 154.101 71.9348 154.145C71.9169 154.188 71.9076 154.234 71.9076 154.281V156.074H55.4952C53.2241 156.074 51.0461 156.973 49.4402 158.573C47.8343 160.174 46.9321 162.344 46.9321 164.608V168.466C46.9321 170.73 47.8343 172.9 49.4402 174.501C51.0461 176.101 53.2241 177 55.4952 177H340.216C342.487 177 344.665 176.101 346.271 174.501C347.877 172.9 348.779 170.73 348.779 168.466V164.608C348.779 162.344 347.877 160.174 346.271 158.573C344.665 156.973 342.487 156.074 340.216 156.074Z" fill="#3F3D56"/>
<path d="M384 168.245H11.7114V169.377H384V168.245Z" fill="#3F3D56"/>
<path d="M307.587 94.9879H225.191V48.24H307.587V94.9879ZM226.007 94.1749H306.771V49.053H226.007V94.1749Z" fill="#3F3D56"/>
<path d="M156.663 104.338H83.2411V58.8093H156.663V104.338ZM84.0569 103.525H155.848V59.6223H84.0569V103.525Z" fill="#3F3D56"/>
<path d="M117.543 86.8581L117.473 85.949C117.263 84.0614 117.894 81.9987 119.648 79.9014C121.227 78.0484 122.103 76.6851 122.103 75.1119C122.103 73.3291 120.981 72.1406 118.771 72.1056C117.507 72.1005 116.271 72.4785 115.228 73.1894L114.386 70.9869C115.544 70.1477 117.543 69.5884 119.402 69.5884C123.437 69.5884 125.261 72.0707 125.261 74.7272C125.261 77.1047 123.927 78.8177 122.244 80.8101C120.7 82.6279 120.139 84.1661 120.244 85.949L120.279 86.858L117.543 86.8581ZM116.771 91.7524C116.753 91.4672 116.793 91.1811 116.891 90.9124C116.989 90.6437 117.141 90.3981 117.339 90.1911C117.537 89.9841 117.776 89.8202 118.04 89.7099C118.305 89.5995 118.589 89.5451 118.876 89.5499C120.104 89.5499 120.946 90.4586 120.946 91.7524C120.957 92.0327 120.912 92.3125 120.812 92.575C120.713 92.8374 120.561 93.0771 120.366 93.2795C120.171 93.482 119.937 93.6431 119.678 93.7531C119.419 93.8632 119.14 93.9199 118.859 93.9199C118.577 93.9199 118.298 93.8632 118.039 93.7531C117.78 93.6431 117.546 93.482 117.351 93.2795C117.156 93.0771 117.005 92.8374 116.905 92.575C116.805 92.3125 116.76 92.0327 116.771 91.7524Z" fill="#D0CDE1"/>
<path d="M263.98 76.6955L263.909 75.7864C263.699 73.8988 264.331 71.8361 266.084 69.7388C267.663 67.8858 268.54 66.5225 268.54 64.9493C268.54 63.1665 267.417 61.978 265.207 61.943C263.944 61.9379 262.708 62.3159 261.664 63.0268L260.823 60.8243C261.98 59.9851 263.98 59.4258 265.839 59.4258C269.873 59.4258 271.697 61.9081 271.697 64.5646C271.697 66.9421 270.364 68.6551 268.68 70.6475C267.137 72.4653 266.576 74.0036 266.681 75.7864L266.716 76.6954L263.98 76.6955ZM263.208 81.5898C263.189 81.3046 263.23 81.0186 263.328 80.7498C263.425 80.4811 263.578 80.2355 263.776 80.0285C263.973 79.8215 264.212 79.6576 264.477 79.5473C264.741 79.4369 265.026 79.3825 265.313 79.3873C266.541 79.3873 267.382 80.296 267.382 81.5898C267.394 81.8701 267.349 82.15 267.249 82.4124C267.149 82.6748 266.997 82.9145 266.802 83.117C266.608 83.3194 266.373 83.4805 266.114 83.5906C265.855 83.7006 265.577 83.7573 265.295 83.7573C265.014 83.7573 264.735 83.7006 264.476 83.5906C264.217 83.4805 263.983 83.3194 263.788 83.117C263.593 82.9145 263.441 82.6748 263.341 82.4124C263.242 82.15 263.196 81.8701 263.208 81.5898Z" fill="#D0CDE1"/>
<path d="M196.891 141.114C216.331 141.114 232.09 125.409 232.09 106.036C232.09 86.6628 216.331 70.9578 196.891 70.9578C177.451 70.9578 161.692 86.6628 161.692 106.036C161.692 125.409 177.451 141.114 196.891 141.114Z" fill="#2F2E41"/>
<path d="M183.297 154.072L172.774 152.174L176.187 130.278L186.709 132.176L183.297 154.072Z" fill="#2F2E41"/>
<path d="M207.754 135.973L197.231 134.074L193.819 152.862L204.341 154.761L207.754 135.973Z" fill="#2F2E41"/>
<path d="M211.374 155.784C211.739 153.981 208.124 151.733 203.3 150.762C198.476 149.792 194.269 150.467 193.904 152.27C193.539 154.072 197.154 156.321 201.978 157.291C206.802 158.262 211.009 157.587 211.374 155.784Z" fill="#2F2E41"/>
<path d="M189.458 155.218C189.7 153.395 185.942 151.394 181.063 150.75C176.184 150.106 172.032 151.062 171.79 152.885C171.548 154.709 175.306 156.709 180.185 157.353C185.064 157.997 189.215 157.041 189.458 155.218Z" fill="#2F2E41"/>
<path d="M199.355 109.444C205.999 109.444 211.385 104.077 211.385 97.4558C211.385 90.8346 205.999 85.467 199.355 85.467C192.711 85.467 187.325 90.8346 187.325 97.4558C187.325 104.077 192.711 109.444 199.355 109.444Z" fill="white"/>
<path d="M204.3 97.1546C206.514 97.1546 208.31 95.3654 208.31 93.1583C208.31 90.9513 206.514 89.1621 204.3 89.1621C202.085 89.1621 200.29 90.9513 200.29 93.1583C200.29 95.3654 202.085 97.1546 204.3 97.1546Z" fill="#3F3D56"/>
<path d="M169.124 67.8746C168.595 54.8882 179.826 43.8885 194.209 43.3063C208.593 42.724 220.682 52.7796 221.211 65.7661C221.74 78.7525 211.742 81.7031 197.359 82.2854C182.975 82.8677 169.654 80.861 169.124 67.8746Z" fill="#16A085"/>
<path d="M230.627 105.012C240.101 102.848 247.229 98.6907 246.547 95.7267C245.865 92.7626 237.632 92.1142 228.158 94.2784C218.684 96.4426 211.556 100.6 212.238 103.564C212.92 106.528 221.153 107.176 230.627 105.012Z" fill="#2F2E41"/>
<path d="M161.533 116.463C171.007 114.299 178.135 110.142 177.453 107.178C176.771 104.214 168.538 103.565 159.064 105.729C149.59 107.894 142.462 112.051 143.144 115.015C143.826 117.979 152.059 118.627 161.533 116.463Z" fill="#2F2E41"/>
<path d="M187.224 119.86C187.036 120.893 187.055 121.952 187.278 122.978C187.501 124.004 187.925 124.976 188.525 125.838C189.125 126.701 189.89 127.437 190.776 128.005C191.661 128.573 192.651 128.961 193.687 129.148C194.723 129.335 195.786 129.317 196.816 129.094C197.845 128.872 198.82 128.45 199.686 127.852C200.551 127.253 201.29 126.491 201.86 125.609C202.43 124.726 202.82 123.74 203.007 122.707C203.796 118.364 200.426 116.827 196.068 116.041C191.709 115.254 188.013 115.516 187.224 119.86Z" fill="white"/>
<path d="M120.911 5.33423H63.0349V60.199H120.911V5.33423Z" fill="#D0CDE1"/>
<path d="M114.334 11.8884H69.6117V45.9707H114.334V11.8884Z" fill="white"/>
<path d="M93.8934 49.9915H69.5675V51.2674H93.8934V49.9915Z" fill="#F2F2F2"/>
<path d="M93.8934 53.8193H69.5675V55.0953H93.8934V53.8193Z" fill="#F2F2F2"/>
<path d="M77.5695 34.0426C80.3979 34.0426 82.6907 31.7576 82.6907 28.9389C82.6907 26.1202 80.3979 23.8352 77.5695 23.8352C74.7411 23.8352 72.4482 26.1202 72.4482 28.9389C72.4482 31.7576 74.7411 34.0426 77.5695 34.0426Z" fill="#3F3D56"/>
<path d="M91.9729 34.0426C94.8013 34.0426 97.0942 31.7576 97.0942 28.9389C97.0942 26.1202 94.8013 23.8352 91.9729 23.8352C89.1445 23.8352 86.8517 26.1202 86.8517 28.9389C86.8517 31.7576 89.1445 34.0426 91.9729 34.0426Z" fill="#8E44AD"/>
<path d="M106.376 34.0426C109.205 34.0426 111.498 31.7576 111.498 28.9389C111.498 26.1202 109.205 23.8352 106.376 23.8352C103.548 23.8352 101.255 26.1202 101.255 28.9389C101.255 31.7576 103.548 34.0426 106.376 34.0426Z" fill="#E6E6E6"/>
<path d="M91.973 11.0759C93.3872 11.0759 94.5336 9.93336 94.5336 8.52402C94.5336 7.11467 93.3872 5.97217 91.973 5.97217C90.5588 5.97217 89.4124 7.11467 89.4124 8.52402C89.4124 9.93336 90.5588 11.0759 91.973 11.0759Z" fill="#3F3D56"/>
<path d="M148.439 111.569H90.5631V166.433H148.439V111.569Z" fill="#D0CDE1"/>
<path d="M141.862 118.123H97.1399V152.205H141.862V118.123Z" fill="white"/>
<path d="M122.659 123.724H106.981V139.349H122.659V123.724Z" fill="#8E44AD"/>
<path d="M112.983 127.631V146.604H132.021V127.631H112.983ZM131.195 145.781H113.809V128.454H131.195V145.781Z" fill="#3F3D56"/>
<path d="M121.421 155.588H97.0956V156.864H121.421V155.588Z" fill="#F2F2F2"/>
<path d="M119.501 117.31C120.915 117.31 122.062 116.168 122.062 114.758C122.062 113.349 120.915 112.207 119.501 112.207C118.087 112.207 116.94 113.349 116.94 114.758C116.94 116.168 118.087 117.31 119.501 117.31Z" fill="#3F3D56"/>
<path d="M299.124 95.1433H241.248V150.008H299.124V95.1433Z" fill="#D0CDE1"/>
<path d="M292.547 101.698H247.824V135.78H292.547V101.698Z" fill="white"/>
<path d="M274.996 128.379H265.375V131.22H274.996V128.379Z" fill="#3F3D56"/>
<path d="M286.628 106.257H253.744V107.475H286.628V106.257Z" fill="#3F3D56"/>
<path d="M286.628 110.113H253.744V111.331H286.628V110.113Z" fill="#3F3D56"/>
<path d="M286.628 113.969H253.744V115.187H286.628V113.969Z" fill="#3F3D56"/>
<path d="M286.628 117.825H253.744V119.043H286.628V117.825Z" fill="#3F3D56"/>
<path d="M286.628 121.682H253.744V122.899H286.628V121.682Z" fill="#3F3D56"/>
<path d="M272.106 139.163H247.78V140.438H272.106V139.163Z" fill="#F2F2F2"/>
<path d="M281.709 142.353H247.78V143.628H281.709V142.353Z" fill="#F2F2F2"/>
<path d="M270.186 100.885C271.6 100.885 272.746 99.7424 272.746 98.3331C272.746 96.9237 271.6 95.7812 270.186 95.7812C268.771 95.7812 267.625 96.9237 267.625 98.3331C267.625 99.7424 268.771 100.885 270.186 100.885Z" fill="#3F3D56"/>
</g>
<defs>
<clipPath id="clip0">
<rect width="384" height="177" fill="white"/>
</clipPath>
</defs>
</svg>
