<svg width="89" height="89" viewBox="0 0 89 89" fill="none" xmlns="http://www.w3.org/2000/svg">
<circle cx="44.5" cy="44.5" r="43.5" stroke="#8E44AD" stroke-width="2"/>
<g clip-path="url(#clip0)">
<path d="M38.0625 43.3125C39.6158 43.3125 40.875 44.5717 40.875 46.125H43.6875C43.6875 43.0184 41.1691 40.5 38.0625 40.5C34.9559 40.5 32.4375 43.0184 32.4375 46.125V48.9375C32.4375 52.0441 34.9559 54.5625 38.0625 54.5625C41.1691 54.5625 43.6875 52.0441 43.6875 48.9375H40.875C40.875 50.4908 39.6158 51.75 38.0625 51.75C36.5092 51.75 35.25 50.4908 35.25 48.9375V46.125C35.25 44.5717 36.5092 43.3125 38.0625 43.3125Z" fill="#8E44AD"/>
<path d="M26.8125 58.781V22.2185C26.8125 21.4418 27.4421 20.8123 28.2188 20.8123H49.3125V26.4373C49.3125 27.9906 50.5717 29.2498 52.125 29.2498H57.75V33.4685H60.5625V27.8435C60.5647 27.4697 60.4179 27.1104 60.1547 26.8451L51.7172 18.4076C51.4518 18.1444 51.0925 17.9977 50.7188 17.9998H28.2188C25.8888 17.9998 24 19.8886 24 22.2185V58.781C24 61.111 25.8888 62.9998 28.2188 62.9998H38.0625V60.1873H28.2188C27.4421 60.1873 26.8125 59.5577 26.8125 58.781Z" fill="#8E44AD"/>
<path d="M64.7812 46.125H61.9688C61.1921 46.125 60.5625 45.4954 60.5625 44.7188C60.5625 43.9421 61.1921 43.3125 61.9688 43.3125H64.7812C65.5579 43.3125 66.1875 43.9421 66.1875 44.7188H69C69 42.3888 67.1112 40.5 64.7812 40.5H61.9688C59.6388 40.5 57.75 42.3888 57.75 44.7188C57.75 47.0487 59.6388 48.9375 61.9688 48.9375H64.7812C65.5579 48.9375 66.1875 49.5671 66.1875 50.3438C66.1875 51.1204 65.5579 51.75 64.7812 51.75H61.9688C61.1921 51.75 60.5625 51.1204 60.5625 50.3438H57.75C57.75 52.6737 59.6388 54.5625 61.9688 54.5625H64.7812C67.1112 54.5625 69 52.6737 69 50.3438C69 48.0139 67.1112 46.125 64.7812 46.125Z" fill="#8E44AD"/>
<path d="M49.3125 43.3125H52.125C52.9017 43.3125 53.5312 43.9421 53.5312 44.7188H56.3438C56.3438 42.3888 54.455 40.5 52.125 40.5H49.3125C46.9825 40.5 45.0938 42.3888 45.0938 44.7188C45.0938 47.0487 46.9825 48.9375 49.3125 48.9375H52.125C52.9017 48.9375 53.5312 49.5671 53.5312 50.3438C53.5312 51.1204 52.9017 51.75 52.125 51.75H49.3125C48.5358 51.75 47.9062 51.1204 47.9062 50.3438H45.0938C45.0938 52.6737 46.9825 54.5625 49.3125 54.5625H52.125C54.455 54.5625 56.3438 52.6737 56.3438 50.3438C56.3438 48.0138 54.455 46.125 52.125 46.125H49.3125C48.5358 46.125 47.9062 45.4954 47.9062 44.7188C47.9062 43.9421 48.5359 43.3125 49.3125 43.3125Z" fill="#8E44AD"/>
</g>
<defs>
<clipPath id="clip0">
<rect width="45" height="45" fill="white" transform="translate(24 18)"/>
</clipPath>
</defs>
</svg>
