<svg width="89" height="89" viewBox="0 0 89 89" fill="none" xmlns="http://www.w3.org/2000/svg">
<circle cx="44.5" cy="44.5" r="43.5" stroke="#8E44AD" stroke-width="2"/>
<g clip-path="url(#clip0)">
<path d="M59.5041 53.9959H58.5832V20.6681C58.5832 19.7482 57.835 19 56.9152 19H45.6619C45.2832 19 44.9775 19.3067 44.9775 19.6844C44.9775 20.0623 45.2832 20.3687 45.6619 20.3687H56.9152C57.0801 20.3687 57.2145 20.5031 57.2145 20.6681V53.9959H36.3178C34.9663 53.9959 33.8667 55.0947 33.8667 56.4462V60.9655C33.8667 62.5795 32.3934 63.7622 31.2065 63.6302C29.8006 63.6302 28.5056 62.4707 28.4586 60.9209C28.4603 34.9185 28.4607 31.5378 28.4607 31.1868C28.4607 31.1608 28.4607 31.151 28.4607 31.1507V31.15H37.1695C38.8183 31.15 40.1607 29.8076 40.1607 28.1588V20.3687H42.9241C43.3021 20.3687 43.6085 20.0623 43.6085 19.6844C43.6085 19.3067 43.3021 19 42.9241 19H39.9136C39.4599 19 39.0289 19.1685 38.6906 19.4773C26.9933 30.3014 27.4548 29.6974 27.253 30.2147C27.1474 30.4456 27.0916 30.7011 27.0916 30.9566C27.0916 34.231 27.0902 57.6581 27.0898 60.9553C27.1551 63.2112 29.006 65 31.2539 65C38.8583 65 36.9228 64.9989 57.8989 65C57.9045 65 57.9108 65 57.9161 64.9989H57.9206C59.19 64.9989 60.4029 64.3858 61.1631 63.3593C61.3887 63.0554 61.3249 62.6272 61.021 62.4019C60.7177 62.1773 60.2889 62.2405 60.0636 62.5444C59.6947 63.0417 59.1672 63.3919 58.5832 63.5443C58.1119 63.6688 60.1369 63.6302 34.2437 63.6302C34.8641 62.9139 35.2358 61.9783 35.2358 60.9655V56.4462C35.2358 55.8503 35.7212 55.365 36.3178 55.365H59.5041C60.1011 55.365 60.5865 55.8503 60.5865 56.4462V60.3569C60.5865 60.7345 60.8932 61.0413 61.2708 61.0413C61.6488 61.0413 61.9552 60.7345 61.9552 60.3569V56.4462C61.9552 55.0947 60.8557 53.9959 59.5041 53.9959ZM38.792 21.2457V28.1588C38.792 29.053 38.0638 29.7812 37.1695 29.7812H29.5293L38.792 21.2457Z" fill="#8E44AD"/>
<path d="M53.9482 49.8593H38.4343C38.0564 49.8593 37.7496 50.166 37.7496 50.5436C37.7496 50.9216 38.0564 51.228 38.4343 51.228H53.9482C54.3261 51.228 54.6325 50.9216 54.6325 50.5436C54.6325 50.166 54.3261 49.8593 53.9482 49.8593Z" fill="#8E44AD"/>
<path d="M31.6519 49.8593C31.2739 49.8593 30.9675 50.166 30.9675 50.5436C30.9675 50.9216 31.2739 51.228 31.6519 51.228H35.6966C36.0742 51.228 36.381 50.9216 36.381 50.5436C36.381 50.166 36.0742 49.8593 35.6966 49.8593H31.6519Z" fill="#8E44AD"/>
<path d="M53.9482 45.5089H31.6519C31.2735 45.5089 30.9672 45.8152 30.9672 46.1932C30.9672 46.5715 31.2735 46.8776 31.6519 46.8776H53.9482C54.3262 46.8776 54.6326 46.5715 54.6326 46.1932C54.6326 45.8152 54.3262 45.5089 53.9482 45.5089Z" fill="#8E44AD"/>
<path d="M53.9482 41.1581H31.6519C31.2735 41.1581 30.9672 41.4645 30.9672 41.8428C30.9672 42.2208 31.2735 42.5271 31.6519 42.5271H53.9482C54.3262 42.5271 54.6326 42.2208 54.6326 41.8428C54.6326 41.4645 54.3262 41.1581 53.9482 41.1581Z" fill="#8E44AD"/>
<path d="M53.9482 36.8073H49.9038C49.5258 36.8073 49.2191 37.114 49.2191 37.4917C49.2191 37.8707 49.5258 38.1764 49.9038 38.1764H53.9482C54.3262 38.1764 54.6326 37.8707 54.6326 37.4917C54.6326 37.114 54.3262 36.8073 53.9482 36.8073Z" fill="#8E44AD"/>
<path d="M31.6519 38.1764H47.1661C47.5437 38.1764 47.8504 37.8707 47.8504 37.4917C47.8504 37.114 47.5437 36.8073 47.1661 36.8073H31.6519C31.2739 36.8073 30.9675 37.114 30.9675 37.4917C30.9675 37.8707 31.2739 38.1764 31.6519 38.1764Z" fill="#8E44AD"/>
<path d="M53.9482 32.4573H31.6519C31.2735 32.4573 30.9672 32.7637 30.9672 33.1416C30.9672 33.5196 31.2735 33.826 31.6519 33.826H53.9482C54.3262 33.826 54.6326 33.5196 54.6326 33.1416C54.6326 32.7637 54.3262 32.4573 53.9482 32.4573Z" fill="#8E44AD"/>
<path d="M53.9483 28.1065H43.3439C42.9659 28.1065 42.6595 28.4129 42.6595 28.7909C42.6595 29.1692 42.9659 29.4756 43.3439 29.4756H53.9483C54.3262 29.4756 54.6326 29.1692 54.6326 28.7909C54.6326 28.4129 54.3262 28.1065 53.9483 28.1065Z" fill="#8E44AD"/>
<path d="M53.9483 23.7561H43.3439C42.9659 23.7561 42.6595 24.0625 42.6595 24.4405C42.6595 24.8184 42.9659 25.1248 43.3439 25.1248H53.9483C54.3262 25.1248 54.6326 24.8184 54.6326 24.4405C54.6326 24.0625 54.3262 23.7561 53.9483 23.7561Z" fill="#8E44AD"/>
</g>
<defs>
<clipPath id="clip0">
<rect width="46" height="46" fill="white" transform="translate(27 19)"/>
</clipPath>
</defs>
</svg>
