<svg width="813" height="474" viewBox="0 0 813 474" fill="none" xmlns="http://www.w3.org/2000/svg">
<g clip-path="url(#clip0)">
<path opacity="0.1" d="M750.665 374.815C749.76 376.953 748.857 379.063 747.956 381.144C746.551 384.377 745.164 387.548 743.795 390.656C743.186 392.033 742.577 393.384 741.984 394.735C735.269 409.764 729 423.056 723.675 433.987C718.844 443.891 711.67 452.19 702.905 458.014C694.14 463.838 684.107 466.972 673.856 467.088L555.457 468.499H554.208L544.058 468.619L535.377 468.722L508.753 469.038H507.676L494.122 469.201H493.708L410.169 470.193L335.601 471.048L326.927 471.151L273.056 471.792H272.993L238.055 472.203H237.68L127.206 473.512L94.1571 473.905C87.1045 473.992 80.0815 472.89 73.3348 470.638C61.5941 466.752 51.0426 459.433 42.8157 449.468C28.6218 432.336 18.277 412.347 11.3284 390.656C10.3239 387.525 9.387 384.355 8.51777 381.144C-15.5368 292.061 13.7878 177.13 66.5658 100.219C68.7779 97.0026 71.0264 93.8664 73.3114 90.81L73.366 90.7416C89.5976 68.9135 107.797 50.6778 127.182 37.7109C161.535 14.6939 199.596 8.21047 237.032 27.5324C268.707 43.8864 298.281 51.5759 326.95 53.6629C329.847 53.8681 332.743 54.0221 335.624 54.1162C401.386 56.3828 463.018 30.4235 535.392 13.6675C538.273 13.0003 541.162 12.3417 544.074 11.7173C595.704 0.461148 652.979 -5.47486 721.091 7.00445C728.167 8.27091 735.15 10.1005 741.984 12.4786C744.987 13.5392 747.881 14.6796 750.665 15.8999C783.175 30.3893 800.906 57.1612 808.44 90.7073C809.153 93.8207 809.77 96.9883 810.291 100.21C823.649 180.902 784.526 295.363 750.665 374.815Z" fill="#8E44AD"/>
<g opacity="0.1">
<path opacity="0.1" d="M127.182 37.7117V473.607L94.1337 474C87.0811 474.087 80.0581 472.985 73.3114 470.733V90.7423H73.366C89.5976 68.8886 107.797 50.6529 127.182 37.7117Z" fill="#8E44AD"/>
<path opacity="0.1" d="M810.33 100.219H66.5658C68.7779 97.0034 71.0264 93.8672 73.3114 90.8108V90.7423H808.48C809.193 93.8387 809.81 96.9977 810.33 100.219Z" fill="#8E44AD"/>
<path opacity="0.1" d="M750.666 15.9092V381.137H747.957C746.551 384.37 745.164 387.54 743.795 390.648C743.186 392.025 742.577 393.376 741.984 394.728V12.4537C744.987 13.5143 747.881 14.6661 750.666 15.9092Z" fill="#8E44AD"/>
<path opacity="0.1" d="M544.074 11.6924V468.654L535.392 468.757V13.6426C538.273 12.9754 541.162 12.3168 544.074 11.6924Z" fill="#8E44AD"/>
<path opacity="0.1" d="M335.624 54.0913V471.135L326.95 471.237V53.638C329.847 53.8433 332.744 53.963 335.624 54.0913Z" fill="#8E44AD"/>
<path opacity="0.1" d="M747.957 381.145C746.551 384.378 745.164 387.549 743.795 390.656H11.3285C10.3239 387.526 9.38705 384.355 8.51782 381.145H747.957Z" fill="#8E44AD"/>
</g>
<path d="M180.039 227.373H165.205V276.692H180.039V227.373Z" fill="#3F3D56"/>
<path d="M579.254 224.807H564.42V276.983H579.254V224.807Z" fill="#3F3D56"/>
<path d="M673.857 456.449V467.568L555.247 468.765L553.982 468.791L508.902 469.244L507.824 469.261L494.123 469.39H493.717L410.193 470.237L273.087 471.631H272.97L238.11 471.99L237.735 471.999L82.8365 473.555V460.725L119.258 436.776L192.335 436.109L193.897 436.1L194.412 436.092L195.974 436.066L231.06 435.749L232.629 435.741L233.129 435.732L234.69 435.724L245.941 435.621L246.238 435.613L273.993 435.356H274.219L490.797 433.355L496.098 433.312H496.629L500.673 433.269L530.068 433.004L531.629 432.978L533.074 432.961H533.823L542.966 432.884L544.777 432.858L547.205 432.841L554.817 432.764L566.895 432.653L568.457 432.636L571.174 432.619H571.681L630.01 432.072L673.857 456.449Z" fill="#65617D"/>
<path opacity="0.2" d="M673.857 456.449V467.568L555.247 468.765L553.982 468.791L508.902 469.244L507.824 469.261L494.123 469.39H493.717L410.193 470.237L273.087 471.631H272.97L238.11 471.99L237.735 471.999L82.8365 473.555V460.725L119.258 436.776L192.335 436.109L193.897 436.1L194.412 436.092L195.974 436.066L231.06 435.749L232.629 435.741L233.129 435.732L234.69 435.724L245.941 435.621L246.238 435.613L273.993 435.356H274.219L490.797 433.355L496.098 433.312H496.629L500.673 433.269L530.068 433.004L531.629 432.978L533.074 432.961H533.823L542.966 432.884L544.777 432.858L547.205 432.841L554.817 432.764L566.895 432.653L568.457 432.636L571.174 432.619H571.681L630.01 432.072L673.857 456.449Z" fill="black"/>
<path d="M231.177 413.69V434.637C231.178 435.63 230.921 436.602 230.437 437.44C229.954 438.279 229.263 438.95 228.445 439.376C227.835 439.7 227.17 439.875 226.493 439.889L199.245 440.522C198.517 440.541 197.795 440.374 197.137 440.035C196.304 439.617 195.599 438.945 195.105 438.101C194.611 437.256 194.349 436.274 194.35 435.27V413.69H231.177Z" fill="#3F3D56"/>
<path opacity="0.1" d="M231.177 413.69V434.637C231.178 435.63 230.921 436.602 230.437 437.44C229.954 438.279 229.263 438.95 228.445 439.376C227.835 439.7 227.17 439.875 226.493 439.889L199.245 440.522C198.517 440.541 197.795 440.374 197.137 440.035C196.304 439.617 195.599 438.945 195.105 438.101C194.611 437.256 194.349 436.274 194.35 435.27V413.69H231.177Z" fill="black"/>
<path d="M232.739 413.69V434.637C232.739 435.63 232.483 436.602 231.999 437.44C231.515 438.279 230.824 438.95 230.006 439.376C229.397 439.7 228.731 439.875 228.054 439.889L200.806 440.522C200.079 440.541 199.357 440.374 198.698 440.035C197.866 439.617 197.161 438.945 196.667 438.101C196.172 437.256 195.91 436.274 195.911 435.27V413.69H232.739Z" fill="#3F3D56"/>
<path d="M568.457 413.69H531.629V440.633H568.457V413.69Z" fill="#3F3D56"/>
<path opacity="0.1" d="M568.457 413.69H531.629V440.633H568.457V413.69Z" fill="black"/>
<path d="M566.895 413.69H530.068V440.633H566.895V413.69Z" fill="#3F3D56"/>
<path opacity="0.1" d="M180.039 227.365V232.266L165.205 231.847V227.365H180.039Z" fill="black"/>
<path d="M277.678 89.2968L259.854 229.571C259.741 230.467 259.33 231.286 258.701 231.872C258.071 232.457 257.267 232.768 256.442 232.745L113.723 228.69L111.013 228.613C110.542 228.601 110.078 228.48 109.651 228.258C109.225 228.036 108.847 227.718 108.54 227.325C108.234 226.932 108.006 226.473 107.873 225.977C107.739 225.481 107.703 224.96 107.765 224.448L127.776 77.6044C127.905 76.6948 128.34 75.8713 128.997 75.2964C129.653 74.7216 130.482 74.4373 131.32 74.4995L274.555 85.1228C275.017 85.1521 275.469 85.2861 275.881 85.5162C276.294 85.7463 276.658 86.0677 276.951 86.4599C277.245 86.8521 277.461 87.3067 277.586 87.795C277.711 88.2832 277.742 88.7946 277.678 89.2968Z" fill="#65617D"/>
<path d="M137.356 84.8149L122.264 214.252L253.428 218.811L269.558 93.9327L137.356 84.8149Z" fill="#8E44AD"/>
<path d="M455.905 82.8133H304.434C302.136 82.8133 300.273 84.8544 300.273 87.3723V226.509C300.273 229.027 302.136 231.068 304.434 231.068H455.905C458.204 231.068 460.067 229.027 460.067 226.509V87.3723C460.067 84.8544 458.204 82.8133 455.905 82.8133Z" fill="#65617D"/>
<path d="M453.032 92.7951H307.814V216.245H453.032V92.7951Z" fill="#8E44AD"/>
<path opacity="0.1" d="M579.254 224.799V228.04L564.42 228.374V224.799H579.254Z" fill="black"/>
<path d="M646.187 222.062C646.208 222.416 646.164 222.771 646.056 223.107C645.949 223.442 645.781 223.749 645.562 224.011C645.343 224.274 645.078 224.484 644.783 224.631C644.488 224.779 644.169 224.859 643.845 224.867L497.69 228.177C497.083 228.191 496.494 227.953 496.041 227.51C495.587 227.067 495.304 226.453 495.247 225.791L482.685 82.7107C482.654 82.3557 482.689 81.9976 482.788 81.6579C482.887 81.3182 483.048 81.0041 483.261 80.7346C483.474 80.4651 483.735 80.2458 484.028 80.09C484.321 79.9342 484.639 79.8451 484.964 79.8282L630.01 71.925L631.572 71.8394C632.192 71.8036 632.802 72.0333 633.271 72.4802C633.74 72.927 634.032 73.556 634.086 74.2344L646.187 222.062Z" fill="#65617D"/>
<path d="M491.031 88.2362L623.499 81.1027L634.687 211.113L503.265 214.535L491.031 88.2362Z" fill="#8E44AD"/>
<path opacity="0.1" d="M646.187 222.062C646.208 222.416 646.164 222.771 646.056 223.106C645.949 223.442 645.781 223.749 645.562 224.011C645.343 224.273 645.078 224.484 644.783 224.631C644.488 224.778 644.169 224.859 643.845 224.867L630.01 71.925L631.572 71.8394C632.192 71.8036 632.801 72.0333 633.271 72.4802C633.74 72.927 634.032 73.556 634.086 74.2344L646.187 222.062Z" fill="black"/>
<path opacity="0.1" d="M131.344 74.491L113.723 228.69L111.013 228.613C110.542 228.601 110.078 228.48 109.651 228.258C109.225 228.036 108.847 227.718 108.54 227.325C108.234 226.932 108.006 226.473 107.873 225.977C107.739 225.481 107.703 224.96 107.765 224.448L127.776 77.6044C127.903 76.6885 128.342 75.8591 129.003 75.2819C129.665 74.7047 130.501 74.4222 131.344 74.491Z" fill="black"/>
<path opacity="0.1" d="M180.039 262.083H165.205V276.692H180.039V262.083Z" fill="black"/>
<path opacity="0.1" d="M232.739 413.682V417.933L195.911 419.011V413.682H232.739Z" fill="black"/>
<path d="M297.735 267.172V411.039C297.726 411.917 297.408 412.758 296.849 413.387C296.289 414.016 295.53 414.385 294.729 414.418L145.101 418.78H145.061C144.247 418.769 143.468 418.409 142.892 417.778C142.316 417.147 141.988 416.294 141.978 415.401V267.172C141.988 266.279 142.316 265.426 142.892 264.795C143.468 264.164 144.247 263.804 145.061 263.793H294.651C295.466 263.804 296.245 264.164 296.821 264.795C297.397 265.426 297.725 266.279 297.735 267.172Z" fill="#65617D"/>
<path opacity="0.1" d="M145.101 263.793V418.78H145.061C144.247 418.769 143.468 418.409 142.892 417.778C142.316 417.147 141.988 416.294 141.978 415.401V267.172C141.988 266.279 142.316 265.426 142.892 264.795C143.468 264.164 144.247 263.804 145.061 263.793H145.101Z" fill="black"/>
<path d="M151.932 272.98H290.513V399.783L151.932 403.204V272.98Z" fill="#D4DFEC"/>
<path opacity="0.1" d="M579.254 262.083H564.42V276.983H579.254V262.083Z" fill="black"/>
<path opacity="0.1" d="M566.895 413.682V419.165L530.068 418.087V413.682H566.895Z" fill="black"/>
<path d="M615.496 267.172V415.401C615.486 416.301 615.152 417.16 614.568 417.793C613.983 418.425 613.195 418.78 612.373 418.78L462.713 414.418C461.912 414.385 461.153 414.016 460.594 413.387C460.034 412.758 459.717 411.917 459.707 411.039V267.172C459.718 266.279 460.046 265.426 460.622 264.795C461.198 264.164 461.977 263.804 462.791 263.793H612.381C613.201 263.796 613.988 264.151 614.571 264.783C615.153 265.415 615.486 266.273 615.496 267.172Z" fill="#65617D"/>
<path opacity="0.1" d="M615.496 267.172V415.401C615.486 416.301 615.152 417.16 614.568 417.793C613.983 418.425 613.195 418.78 612.373 418.78V263.793C613.195 263.793 613.983 264.148 614.568 264.78C615.152 265.413 615.486 266.272 615.496 267.172Z" fill="black"/>
<path d="M605.542 272.98H466.96V399.783L605.542 403.204V272.98Z" fill="#D4DFEC"/>
<path d="M455.835 267.172V411.039C455.826 411.917 455.508 412.758 454.949 413.387C454.389 414.016 453.63 414.385 452.829 414.418L303.2 418.78C302.379 418.78 301.59 418.425 301.006 417.793C300.421 417.16 300.088 416.301 300.077 415.401V267.172C300.088 266.279 300.416 265.426 300.992 264.795C301.568 264.164 302.347 263.804 303.161 263.793H452.751C453.566 263.804 454.344 264.164 454.921 264.795C455.497 265.426 455.825 266.279 455.835 267.172Z" fill="#65617D"/>
<path d="M310.032 272.98H448.613V399.783L310.032 403.204V272.98Z" fill="#D4DFEC"/>
<path opacity="0.1" d="M673.857 456.449V467.568L555.247 468.765L553.982 468.791L508.902 469.244L507.824 469.261L494.123 469.39H493.717L410.193 470.237L273.087 471.631H272.97L238.11 471.99L237.735 471.999L82.8365 473.555V460.725L240.944 459.588H241.319L273.321 459.348H273.47L494.482 457.749H494.708L494.841 457.74H495.208L498.947 457.715H500.087L558.245 457.287L561.68 457.27L562.445 457.261L673.857 456.449Z" fill="black"/>
<path d="M380.423 276.692C402.556 276.692 420.499 257.035 420.499 232.787C420.499 208.54 402.556 188.883 380.423 188.883C358.29 188.883 340.348 208.54 340.348 232.787C340.348 257.035 358.29 276.692 380.423 276.692Z" fill="#FBBEBE"/>
<path d="M420.507 322.597C420.507 322.597 342.823 332.861 350.24 322.597C352.926 318.885 353.667 307.886 353.519 295.355C353.472 291.549 353.347 287.606 353.168 283.68C352.309 264.862 350.24 246.473 350.24 246.473C350.24 246.473 418.164 211.404 410.357 239.202C407.234 250.433 408.257 266.205 410.63 281.011C411.325 285.331 412.129 289.564 412.972 293.585C415.03 303.39 417.545 313.074 420.507 322.597Z" fill="#FBBEBE"/>
<path opacity="0.1" d="M420.507 322.598C420.507 322.598 342.823 332.862 350.24 322.598C352.926 318.885 353.667 307.886 353.519 295.355C365.363 289.813 380.431 293.944 380.431 293.944C396.296 290.48 406.469 291.155 412.972 293.585C415.03 303.39 417.545 313.074 420.507 322.598Z" fill="black"/>
<path d="M273.056 472.597V471.879L410.169 470.245L493.709 469.39H493.943L493.857 470.656L493.974 469.39H494.122V469.244L495.192 457.74L495.598 453.386L495.723 452.027L495.832 450.889L500.657 433.261L505.482 415.658L509.542 400.835L515.741 378.186C515.741 378.186 512.228 369.205 510.276 366.639C508.324 364.073 506.372 346.538 506.372 346.538C506.372 346.538 489.711 329.149 482.427 327.148C479.374 326.293 473.347 325.155 466.945 323.727C464.548 323.196 462.089 322.632 459.723 322.016C458.388 321.682 457.076 321.332 455.819 320.981C453.373 320.311 450.962 319.495 448.597 318.535C447.358 318.041 446.178 317.384 445.084 316.576C439.346 311.966 424.964 311.444 424.41 311.444C424.409 311.424 424.409 311.404 424.41 311.384V311.307C424.43 310.948 424.43 310.588 424.41 310.229C424.41 309.887 424.41 309.485 424.34 309.032C424.34 308.895 424.34 308.75 424.285 308.604C424.246 308.296 424.199 307.971 424.129 307.629C424.105 307.476 424.074 307.325 424.035 307.176C423.809 306.145 423.482 305.144 423.059 304.191C423.005 304.054 422.935 303.908 422.872 303.772C422.489 302.982 422.045 302.229 421.545 301.522C421.443 301.377 421.334 301.223 421.217 301.077C420.577 300.251 419.866 299.495 419.093 298.819C418.883 298.64 418.664 298.451 418.437 298.28C418.311 298.168 418.178 298.065 418.039 297.972L417.344 297.476L416.696 297.066C416.126 296.724 415.525 296.39 414.869 296.074C414.666 295.971 414.448 295.877 414.229 295.783C414.011 295.689 413.667 295.543 413.378 295.424H413.331L412.746 295.167C412.301 295.004 411.848 294.859 411.372 294.714L410.646 294.508L409.865 294.312L409.084 294.132C408.303 293.961 407.468 293.807 406.594 293.687L405.704 293.568L404.79 293.465L403.845 293.379L402.503 293.294L400.941 293.234C394.054 293.233 387.187 294.033 380.454 295.62C375.777 294.48 370.987 293.997 366.198 294.183H365.519L364.738 294.235H364.239L363.231 294.337C362.896 294.337 362.552 294.414 362.216 294.466C361.881 294.517 361.529 294.56 361.194 294.62L360.678 294.714C360.171 294.808 359.656 294.91 359.117 295.03C358.945 295.064 358.773 295.107 358.602 295.158C357.922 295.321 357.243 295.518 356.572 295.74C356.236 295.843 355.9 295.962 355.565 296.091C355.393 296.142 355.229 296.21 355.065 296.279L354.565 296.476L354.073 296.689L353.488 296.946C353.191 297.083 352.902 297.228 352.613 297.382C352.449 297.459 352.285 297.545 352.129 297.639C351.973 297.733 351.809 297.81 351.661 297.904C349.896 298.903 348.264 300.164 346.812 301.65L346.414 302.07L346.024 302.506C345.891 302.651 345.766 302.805 345.641 302.959C345.132 303.568 344.658 304.211 344.22 304.884C344.095 305.063 343.978 305.243 343.861 305.431C343.366 306.231 342.917 307.066 342.518 307.929C342.417 308.134 342.323 308.348 342.229 308.553C341.592 309.998 341.07 311.5 340.668 313.043C340.522 313.614 340.39 314.184 340.27 314.754C340.27 314.754 323.742 322.743 310.032 328.525C306.386 330.065 302.95 331.459 300.077 332.511C299.242 332.819 298.461 333.101 297.735 333.366C296.16 333.99 294.521 334.404 292.855 334.598C292.07 334.612 291.287 334.692 290.513 334.837C284.213 335.958 273.415 340.825 272.236 345.709C272.14 346.099 272.114 346.505 272.158 346.906C272.158 346.906 272.158 346.966 272.158 347C272.939 352.987 267.474 352.132 267.474 352.132C267.474 352.132 265.522 367.956 262.789 372.232C260.814 375.312 259.463 382.18 259.291 387.363C259.193 388.978 259.309 390.6 259.635 392.179C259.635 392.222 259.635 392.264 259.635 392.299C259.947 393.445 259.198 396.575 257.925 400.587C256.543 404.992 254.529 410.466 252.593 415.632C249.673 423.433 246.925 430.515 246.753 432.072C246.683 432.764 246.48 434.005 246.198 435.604C245.059 442.122 242.529 454.533 241.28 459.553C240.351 463.3 239 468.432 238.071 471.956C238.071 472.058 238.016 472.161 237.993 472.255L272.993 471.879V472.597H273.103H273.056Z" fill="#8E44AD"/>
<path opacity="0.1" d="M285.829 371.779C285.829 371.779 330.331 397.012 346.336 394.018L285.829 371.779Z" fill="black"/>
<path opacity="0.1" d="M376.395 361.515C376.395 361.515 419.726 376.911 434.17 379.049C448.613 381.188 376.395 361.515 376.395 361.515Z" fill="black"/>
<path opacity="0.1" d="M424.457 311.974C401.816 316.542 359.187 315.558 340.762 314.865C347.515 288.35 380.447 297.365 380.447 297.365C421.209 288.453 424.332 306.945 424.457 311.974Z" fill="black"/>
<path d="M424.457 310.264C401.816 314.831 359.187 313.847 340.762 313.155C347.515 286.639 380.447 295.654 380.447 295.654C421.209 286.742 424.332 305.234 424.457 310.264Z" fill="#8E44AD"/>
<path d="M544.644 427.162C544.644 427.162 571.314 422.672 571.837 435.501C572.36 448.331 558.237 457.295 558.237 457.295L544.644 427.162Z" fill="#FBBEBE"/>
<path opacity="0.1" d="M410.63 281.011C409.483 281.573 408.31 282.07 407.117 282.499C398.7 285.681 390.214 288.889 381.352 290.052C372.491 291.215 363.192 290.189 355.463 285.348C354.651 284.845 353.869 284.288 353.121 283.68C352.262 264.862 350.193 246.473 350.193 246.473C350.193 246.473 418.117 211.404 410.31 239.202C407.203 250.433 408.257 266.205 410.63 281.011Z" fill="black"/>
<path d="M369.431 164.164C368.316 164.487 367.149 164.519 366.021 164.259C364.893 163.999 363.836 163.454 362.935 162.667L364.559 165.139C363.602 165.26 362.632 165.151 361.718 164.818C360.803 164.486 359.966 163.939 359.265 163.215C359.118 165.428 359.202 167.652 359.515 169.844C356.828 169.986 354.183 169.076 352.051 167.278C352.01 168.049 352.185 168.816 352.554 169.475C352.922 170.135 353.466 170.654 354.113 170.964C351.413 170.611 348.689 171.345 346.448 173.031C344.207 174.717 342.602 177.238 341.933 180.125L346.008 180.535C342.806 181.285 339.931 183.206 337.858 185.984C336.608 187.694 335.656 189.884 336.202 191.971C336.749 194.058 339.388 195.392 340.824 193.904C338.781 196.576 337.296 199.705 336.473 203.073C335.65 206.44 335.51 209.964 336.062 213.397C336.432 214.86 336.554 216.385 336.421 217.896C336.163 219.307 335.351 220.531 334.945 221.908C334.165 224.405 334.906 227.117 335.601 229.606L339.263 242.795C340.59 247.559 341.91 252.332 343.643 256.942C344.87 259.857 345.914 262.86 346.766 265.932C347.749 270.071 347.789 274.605 349.889 278.223C351.328 280.5 353.252 282.358 355.494 283.637C363.216 288.478 372.546 289.505 381.384 288.341C390.222 287.178 398.701 283.971 407.109 280.789C408.977 280.172 410.77 279.311 412.449 278.223C418.266 274.049 419.562 265.513 420.647 257.994C421.857 249.612 423.473 241.247 426.339 233.361C428.041 228.665 430.242 223.901 429.868 218.871C429.391 212.191 424.566 206.777 423.372 200.208C422.972 198.012 422.991 195.749 423.427 193.562C423.797 192.259 424.004 190.906 424.043 189.542C423.911 186.788 421.849 184.666 419.913 182.896C415.713 179.053 411.377 175.42 406.906 171.999C406.68 170.288 408.803 169.553 409.764 168.201C411.122 166.294 409.717 163.266 407.656 162.376C405.594 161.487 403.283 162.069 401.136 162.659C401.276 161.455 401.058 160.233 400.513 159.177C399.969 158.12 399.127 157.283 398.114 156.792C397.101 156.301 395.97 156.182 394.89 156.451C393.81 156.721 392.838 157.365 392.119 158.288C391.549 156.856 390.638 155.617 389.481 154.703C388.325 153.788 386.965 153.23 385.545 153.088C380.369 152.643 380.267 156.979 376.957 159.366C373.647 161.752 370.914 158.604 368.369 156.312C367.901 157.608 367.753 159.016 367.939 160.394C368.126 161.772 368.64 163.073 369.431 164.164Z" fill="#3F3D56"/>
<path d="M564.42 452.822C564.42 452.822 563.725 454.635 562.445 457.261C560.508 461.301 558.15 465.081 555.418 468.526L555.208 468.774H553.943L508.863 469.227H507.785L507.653 469.056L498.908 457.689L495.614 453.404L495.481 453.224L495.2 452.865L495.044 452.659L494.841 452.394L488.431 444.063L490.773 433.372L494.763 415.358L494.864 414.922L495.645 411.501L496.199 408.935L498.057 400.57L504.428 371.788L515.749 378.203L527.686 401.297L534.096 413.699H537.61C538.273 413.699 539.796 415.102 541.326 416.718C541.872 417.291 542.419 417.899 542.887 418.429C544.277 420.003 545.378 421.354 545.378 421.354C545.378 421.354 551.07 421.491 552.6 426.401C552.679 426.638 552.744 426.881 552.795 427.128C553.303 429.058 553.964 430.935 554.77 432.739C555.777 435.142 557.042 437.871 558.323 440.599C560.704 445.603 563.124 450.367 564.014 452.095L564.124 452.309L564.42 452.822Z" fill="#8E44AD"/>
<path opacity="0.1" d="M497.355 414.204L497.277 415.427V415.512L497.144 417.48L496.106 433.312L494.849 452.386L494.489 457.757L493.709 469.253V469.398L410.17 470.254L273.079 471.879V472.597H272.97V471.879V471.639L273.321 459.357L273.993 435.356L274.571 415.008L274.625 412.981C274.659 411.757 274.921 410.554 275.394 409.445C275.866 408.336 276.541 407.344 277.375 406.53C278.21 405.716 279.187 405.097 280.247 404.71C281.307 404.324 282.428 404.178 283.541 404.282C287.226 404.624 292.012 405.043 297.735 405.488L300.077 405.676C333.126 408.191 394.203 411.441 455.835 407.387C457.131 407.31 458.435 407.224 459.739 407.122C469.295 406.463 478.843 405.616 488.298 404.556C489.493 404.418 490.702 404.57 491.838 405C492.974 405.429 494.01 406.126 494.873 407.042C495.737 407.958 496.406 409.07 496.835 410.3C497.264 411.53 497.441 412.848 497.355 414.161V414.204Z" fill="black"/>
<path d="M273.056 472.597V471.879L410.169 470.245L493.709 469.39H493.943V469.244L494.724 457.749L495.059 452.617L496.34 433.278L497.347 417.967V417.591C497.393 416.885 497.365 416.176 497.261 415.478C497.265 415.45 497.265 415.421 497.261 415.393C497.046 413.949 496.51 412.586 495.699 411.424C494.84 410.216 493.713 409.268 492.427 408.67C491.14 408.071 489.735 407.841 488.345 408.002C478.89 409.063 469.342 409.91 459.785 410.568C458.482 410.671 457.178 410.757 455.882 410.834C394.25 414.845 333.173 411.595 300.124 409.123L297.782 408.935C292.059 408.49 287.273 408.079 283.588 407.729C281.561 407.541 279.542 408.183 277.922 409.531C276.301 410.878 275.193 412.835 274.813 415.025C274.734 415.488 274.687 415.957 274.672 416.428L274.141 435.382L273.415 459.391L273.072 471.674V471.913V472.632L273.056 472.597Z" fill="#3F3D56"/>
<path opacity="0.1" d="M497.589 420.2L496.629 433.312L495.2 452.856L494.841 457.749L494.06 468.705L494.013 469.253V469.398L493.896 470.664L493.982 469.398H493.756L410.216 470.254L273.079 471.879V471.639L273.462 459.357L274.243 435.356L274.742 419.404C274.767 418.497 274.998 417.61 275.416 416.826C275.833 416.042 276.423 415.384 277.131 414.914C278.015 414.32 279.049 414.05 280.083 414.144C281.722 414.289 283.736 414.46 286.086 414.648C289.904 414.956 294.612 415.316 300.093 415.692C310.243 416.393 322.976 417.146 337.568 417.762C378.167 419.473 432.975 420.046 485.035 415.05C487.377 414.828 489.797 414.58 492.163 414.332C493.099 414.23 494.043 414.426 494.88 414.896C495.117 415.026 495.342 415.181 495.551 415.358C496.231 415.898 496.769 416.623 497.113 417.462C497.192 417.629 497.258 417.804 497.308 417.984C497.542 418.693 497.638 419.448 497.589 420.2Z" fill="black"/>
<path opacity="0.1" d="M232.739 431.909V434.638C232.739 435.63 232.483 436.602 231.999 437.44C231.515 438.279 230.824 438.95 230.006 439.376L198.698 440.035C197.866 439.617 197.161 438.945 196.667 438.101C196.172 437.256 195.91 436.274 195.911 435.271V432.705L232.739 431.909Z" fill="black"/>
<path d="M233.129 440.984L192.335 441.84V434.424L233.129 433.568V440.984Z" fill="#3F3D56"/>
<path opacity="0.1" d="M233.129 440.984L192.335 441.84V434.424L233.129 433.568V440.984Z" fill="black"/>
<path d="M234.69 440.984L193.897 441.84V434.424L234.69 433.568V440.984Z" fill="#3F3D56"/>
<g opacity="0.1">
<path opacity="0.1" d="M369.751 161.359C368.988 160.273 368.481 158.998 368.275 157.646C368.087 158.968 368.2 160.319 368.603 161.581C368.991 161.542 369.374 161.467 369.751 161.359Z" fill="black"/>
<path opacity="0.1" d="M359.835 167.038C359.688 165.989 359.591 164.933 359.546 163.873C359.546 164.925 359.546 165.986 359.546 167.047L359.835 167.038Z" fill="black"/>
<path opacity="0.1" d="M423.465 195.581C423.509 194.818 423.603 194.061 423.747 193.314C424.116 192.013 424.326 190.664 424.371 189.302C424.354 188.997 424.312 188.693 424.246 188.396C424.113 189.183 423.903 189.97 423.747 190.748C423.435 192.335 423.34 193.963 423.465 195.581Z" fill="black"/>
<path opacity="0.1" d="M407.226 169.151L408.077 169.826C408.795 169.258 409.466 168.623 410.084 167.928C410.377 167.482 410.559 166.961 410.611 166.414C410.664 165.868 410.584 165.316 410.38 164.814C410.302 165.009 410.203 165.193 410.084 165.362C409.123 166.713 407 167.457 407.226 169.151Z" fill="black"/>
<path opacity="0.1" d="M343.073 177.379C342.788 178.003 342.56 178.656 342.394 179.329C343.615 178.582 344.93 178.038 346.297 177.713L343.073 177.379Z" fill="black"/>
<path opacity="0.1" d="M353.839 168.073C353.326 167.763 352.836 167.412 352.371 167.021C352.352 167.359 352.375 167.699 352.442 168.03C352.908 168.006 353.375 168.02 353.839 168.073Z" fill="black"/>
<path opacity="0.1" d="M430.172 218.469C429.852 222.618 428.087 226.612 426.659 230.547C423.793 238.433 422.177 246.798 420.967 255.189C419.882 262.707 418.625 271.243 412.769 275.409C411.096 276.504 409.305 277.366 407.437 277.975C399.021 281.165 390.534 284.364 381.672 285.527C372.811 286.691 363.512 285.673 355.783 280.832C353.542 279.55 351.618 277.693 350.177 275.417C348.093 271.799 348.054 267.266 347.054 263.126C346.202 260.052 345.159 257.046 343.931 254.128C342.206 249.526 340.879 244.719 339.559 239.989C338.336 235.593 337.116 231.194 335.898 226.792C335.497 225.467 335.199 224.108 335.008 222.729C334.703 224.918 335.297 227.211 335.898 229.358C337.116 233.765 338.336 238.165 339.559 242.555C340.879 247.32 342.206 252.092 343.931 256.694C345.159 259.612 346.202 262.618 347.054 265.692C348.038 269.832 348.077 274.365 350.177 277.983C351.618 280.259 353.542 282.116 355.783 283.398C363.512 288.239 372.834 289.257 381.672 288.093C390.51 286.93 398.989 283.731 407.437 280.541C409.305 279.932 411.096 279.07 412.769 277.975C418.586 273.809 419.882 265.273 420.967 257.755C422.177 249.364 423.793 240.999 426.659 233.113C428.361 228.425 430.562 223.661 430.188 218.623C430.188 218.572 430.172 218.521 430.172 218.469Z" fill="black"/>
<path opacity="0.1" d="M336.725 215.159C336.725 215.159 336.725 215.099 336.725 215.065C336.866 213.557 336.744 212.033 336.366 210.574C336.21 209.636 336.109 208.687 336.062 207.735C335.972 209.544 336.074 211.358 336.366 213.14C336.491 213.808 336.632 214.483 336.725 215.159Z" fill="black"/>
<path opacity="0.1" d="M339.107 194.238C339.707 193.132 340.389 192.083 341.144 191.099C339.716 192.595 337.077 191.261 336.522 189.183C336.318 190.023 336.318 190.908 336.522 191.749C336.714 192.376 337.055 192.937 337.509 193.374C337.962 193.811 338.514 194.109 339.107 194.238Z" fill="black"/>
</g>
<path opacity="0.1" d="M534.104 413.69C534.104 413.69 536.579 423.527 534.104 432.08C531.629 440.633 534.104 413.69 534.104 413.69Z" fill="black"/>
<path opacity="0.1" d="M544.644 423.723C544.644 423.723 545.683 436.211 543.34 438.427C540.998 440.642 544.644 423.723 544.644 423.723Z" fill="black"/>
<path d="M155.359 293.26L234.69 292.404" stroke="#8E44AD" stroke-width="2" stroke-miterlimit="10"/>
<path d="M155.359 303.926L234.69 303.079" stroke="#8E44AD" stroke-width="2" stroke-miterlimit="10"/>
<path d="M155.359 314.6L234.69 313.745" stroke="#8E44AD" stroke-width="2" stroke-miterlimit="10"/>
</g>
<defs>
<clipPath id="clip0">
<rect width="813" height="474" fill="white"/>
</clipPath>
</defs>
</svg>
