<svg width="34" height="33" viewBox="0 0 34 33" fill="none" xmlns="http://www.w3.org/2000/svg">
<g clip-path="url(#clip0)">
<path d="M34 3.60757C31.8613 3.70325 31.9079 3.69544 31.6662 3.71508L32.9328 0.204146C32.9328 0.204146 28.9791 1.61582 27.9767 1.86835C25.3444 -0.428048 21.4316 -0.529511 18.6342 1.13922C16.3435 2.50608 15.1139 4.85333 15.524 7.59687C11.0657 6.9964 7.30936 4.94523 4.34364 1.48742L3.40565 0.393981L2.70476 1.64326C1.81891 3.22186 1.52475 5.0268 1.87624 6.72549C2.02046 7.42239 2.26559 8.08707 2.60515 8.70944L1.80049 8.40681L1.70503 9.71174C1.60828 11.0373 2.063 12.5847 2.92162 13.8506C3.16338 14.2071 3.47466 14.5986 3.8692 14.9848L3.45338 14.9229L3.96077 16.4181C4.62769 18.3827 6.01288 19.9026 7.81052 20.7476C6.01521 21.487 4.56491 21.9588 2.18103 22.7199L0 23.4158L2.0145 24.4848C2.78258 24.8925 5.49667 26.2538 8.17834 26.6622C14.1393 27.5695 20.8508 26.8306 25.369 22.8811C29.1747 19.5544 30.4234 14.8224 30.164 9.89805C30.1248 9.15256 30.3352 8.44105 30.7565 7.89497C31.6003 6.80153 33.9948 3.61487 34 3.60757ZM29.1635 6.73682C28.4639 7.64345 28.1134 8.80134 28.1762 9.99674C28.438 14.9639 27.0455 18.816 24.0372 21.4455C20.5232 24.5173 14.855 25.7231 8.48677 24.7535C7.33348 24.578 6.14154 24.185 5.15504 23.7925C7.15372 23.125 8.69714 22.5301 11.1897 21.3851L14.6693 19.7866L10.8276 19.5479C8.98741 19.4336 7.45514 18.568 6.51326 17.1626C7.01338 17.1344 7.49561 17.0559 7.97575 16.926L11.6398 15.9355L7.94514 15.0573C6.14984 14.6306 5.12651 13.588 4.58411 12.7884C4.22795 12.2629 3.99527 11.7246 3.85571 11.2284C4.22614 11.3248 4.65804 11.3936 5.35452 11.4605L8.77419 11.7888L6.06476 9.73742C4.11252 8.25953 3.33017 6.03917 3.9037 3.90466C9.99648 10.0383 17.1502 9.57729 17.8703 9.73943C17.7118 8.24518 17.7076 8.24165 17.6661 8.0994C16.744 4.93541 18.765 3.32886 19.6765 2.78504C21.5805 1.64931 24.6027 1.4781 26.6961 3.34926C27.1482 3.7531 27.7596 3.91196 28.3319 3.77399C28.8455 3.65012 29.267 3.51895 29.6797 3.3762L28.8206 5.75744L29.9173 5.75819C29.7103 6.02759 29.4621 6.3501 29.1635 6.73682Z" fill="#16A085"/>
</g>
<defs>
<clipPath id="clip0">
<rect width="34" height="33" fill="white"/>
</clipPath>
</defs>
</svg>
