<svg width="34" height="33" viewBox="0 0 34 33" fill="none" xmlns="http://www.w3.org/2000/svg">
<path d="M29.0195 0H4.98047C2.23421 0 0 2.1685 0 4.83398V28.166C0 30.8315 2.23421 33 4.98047 33H29.0195C31.7658 33 34 30.8315 34 28.166V4.83398C34 2.1685 31.7658 0 29.0195 0ZM32.0078 28.166C32.0078 29.7653 30.6672 31.0664 29.0195 31.0664H4.98047C3.33276 31.0664 1.99219 29.7653 1.99219 28.166V4.83398C1.99219 3.23474 3.33276 1.93359 4.98047 1.93359H29.0195C30.6672 1.93359 32.0078 3.23474 32.0078 4.83398V28.166Z" fill="#16A085"/>
<path d="M6.04297 27.1992H12.0195V13.5352H6.04297V27.1992ZM8.03516 15.4688H10.0273V25.2656H8.03516V15.4688Z" fill="#16A085"/>
<path d="M21.9862 13.5352C21.9844 13.5352 21.9823 13.5352 21.9805 13.5352C21.2918 13.5352 20.621 13.6469 19.9883 13.864V13.5352H14.0117V27.1992H19.9883V20.3027C19.9883 19.7697 20.4352 19.3359 20.9844 19.3359C21.5335 19.3359 21.9805 19.7697 21.9805 20.3027V27.1992H27.957V19.6381C27.957 16.5091 25.3418 13.5382 21.9862 13.5352ZM25.9648 25.2656H23.9727V20.3027C23.9727 18.7035 22.6321 17.4023 20.9844 17.4023C19.3367 17.4023 17.9964 18.7035 17.9961 20.3025V25.2656H16.0039V15.4688H17.9961V17.4036L19.5904 16.2414C20.2837 15.7359 21.1102 15.4688 21.9805 15.4688H21.9844C24.1047 15.4708 25.9648 17.419 25.9648 19.6381V25.2656Z" fill="#16A085"/>
<path d="M6.04297 11.6016H12.0195V5.80078H6.04297V11.6016ZM8.03516 7.73438H10.0273V9.66797H8.03516V7.73438Z" fill="#16A085"/>
</svg>
