<svg width="396" height="241" viewBox="0 0 396 241" fill="none" xmlns="http://www.w3.org/2000/svg">
<g opacity="0.2">
<path opacity="0.2" d="M183.621 131.784C183.621 120.376 180.567 110.01 175.59 102.297C177.353 98.0789 178.158 93.4151 177.93 88.7416C177.701 84.0681 176.447 79.5377 174.284 75.5745C172.122 71.6113 169.121 68.3448 165.563 66.0807C162.006 63.8166 158.008 62.629 153.943 62.629C149.879 62.629 145.881 63.8166 142.323 66.0807C138.765 68.3448 135.765 71.6113 133.602 75.5745C131.439 79.5377 130.185 84.0681 129.957 88.7416C129.728 93.4151 130.533 98.0789 132.296 102.297C127.319 110.01 124.266 120.376 124.266 131.784C124.266 143.192 127.319 153.558 132.296 161.271C130.533 165.489 129.728 170.153 129.957 174.826C130.185 179.5 131.439 184.03 133.602 187.993C135.765 191.957 138.765 195.223 142.323 197.487C145.881 199.751 149.879 200.939 153.943 200.939C158.008 200.939 162.006 199.751 165.563 197.487C169.121 195.223 172.122 191.957 174.284 187.993C176.447 184.03 177.701 179.5 177.93 174.826C178.158 170.153 177.353 165.489 175.59 161.271C180.567 153.558 183.621 143.192 183.621 131.784Z" fill="#8E44AD"/>
<path opacity="0.1" d="M183.621 131.784C183.621 120.376 180.567 110.01 175.59 102.297C177.353 98.0789 178.158 93.4151 177.93 88.7416C177.701 84.0681 176.447 79.5377 174.284 75.5745C172.122 71.6113 169.121 68.3448 165.563 66.0807C162.006 63.8166 158.008 62.629 153.943 62.629C149.879 62.629 145.881 63.8166 142.323 66.0807C138.765 68.3448 135.765 71.6113 133.602 75.5745C131.439 79.5377 130.185 84.0681 129.957 88.7416C129.728 93.4151 130.533 98.0789 132.296 102.297C127.319 110.01 124.266 120.376 124.266 131.784C124.266 143.192 127.319 153.558 132.296 161.271C130.533 165.489 129.728 170.153 129.957 174.826C130.185 179.5 131.439 184.03 133.602 187.993C135.765 191.957 138.765 195.223 142.323 197.487C145.881 199.751 149.879 200.939 153.943 200.939C158.008 200.939 162.006 199.751 165.563 197.487C169.121 195.223 172.122 191.957 174.284 187.993C176.447 184.03 177.701 179.5 177.93 174.826C178.158 170.153 177.353 165.489 175.59 161.271C180.567 153.558 183.621 143.192 183.621 131.784Z" fill="#8E44AD"/>
<path opacity="0.2" d="M185.034 131.784C185.034 120.376 181.981 110.01 177.004 102.297C178.766 98.0789 179.571 93.4151 179.343 88.7416C179.115 84.0681 177.86 79.5377 175.697 75.5745C173.535 71.6113 170.534 68.3448 166.977 66.0807C163.419 63.8166 159.421 62.629 155.356 62.629C151.292 62.629 147.294 63.8166 143.736 66.0807C140.179 68.3448 137.178 71.6113 135.015 75.5745C132.853 79.5377 131.598 84.0681 131.37 88.7416C131.141 93.4151 131.946 98.0789 133.709 102.297C128.732 110.01 125.679 120.376 125.679 131.784C125.679 143.192 128.732 153.558 133.709 161.271C131.946 165.489 131.141 170.153 131.37 174.826C131.598 179.5 132.853 184.03 135.015 187.993C137.178 191.957 140.179 195.223 143.736 197.487C147.294 199.751 151.292 200.939 155.356 200.939C159.421 200.939 163.419 199.751 166.977 197.487C170.534 195.223 173.535 191.957 175.697 187.993C177.86 184.03 179.115 179.5 179.343 174.826C179.571 170.153 178.766 165.489 177.004 161.271C181.981 153.558 185.034 143.192 185.034 131.784Z" fill="#8E44AD"/>
<path opacity="0.2" d="M158.183 236.757H152.53L155.357 129.343L158.183 236.757Z" fill="#8E44AD"/>
<path opacity="0.2" d="M156.063 156.188L174.435 147.245L156.063 158.637V156.188Z" fill="#8E44AD"/>
<path opacity="0.2" d="M154.393 165.961L148.997 158.637L154.286 170.03L154.393 165.961Z" fill="#8E44AD"/>
</g>
<g opacity="0.2">
<path opacity="0.2" d="M226.725 168.647C226.725 161.273 224.751 154.574 221.534 149.588C222.674 146.862 223.194 143.848 223.047 140.827C222.899 137.807 222.088 134.879 220.69 132.317C219.292 129.755 217.353 127.644 215.054 126.181C212.754 124.718 210.17 123.95 207.543 123.95C204.916 123.95 202.332 124.718 200.033 126.181C197.733 127.644 195.794 129.755 194.396 132.317C192.998 134.879 192.188 137.807 192.04 140.827C191.892 143.848 192.413 146.862 193.552 149.588C190.335 154.574 188.362 161.273 188.362 168.647C188.362 176.02 190.335 182.72 193.552 187.705C192.413 190.432 191.892 193.446 192.04 196.467C192.188 199.487 192.998 202.415 194.396 204.977C195.794 207.538 197.733 209.65 200.033 211.113C202.332 212.576 204.916 213.344 207.543 213.344C210.17 213.344 212.754 212.576 215.054 211.113C217.353 209.65 219.292 207.538 220.69 204.977C222.088 202.415 222.899 199.487 223.047 196.467C223.194 193.446 222.674 190.432 221.534 187.705C224.751 182.72 226.725 176.02 226.725 168.647Z" fill="#8E44AD"/>
<path opacity="0.1" d="M226.725 168.647C226.725 161.273 224.751 154.574 221.534 149.588C222.674 146.862 223.194 143.848 223.047 140.827C222.899 137.807 222.088 134.879 220.69 132.317C219.292 129.755 217.353 127.644 215.054 126.181C212.754 124.718 210.17 123.95 207.543 123.95C204.916 123.95 202.332 124.718 200.033 126.181C197.733 127.644 195.794 129.755 194.396 132.317C192.998 134.879 192.188 137.807 192.04 140.827C191.892 143.848 192.413 146.862 193.552 149.588C190.335 154.574 188.362 161.273 188.362 168.647C188.362 176.02 190.335 182.72 193.552 187.705C192.413 190.432 191.892 193.446 192.04 196.467C192.188 199.487 192.998 202.415 194.396 204.977C195.794 207.538 197.733 209.65 200.033 211.113C202.332 212.576 204.916 213.344 207.543 213.344C210.17 213.344 212.754 212.576 215.054 211.113C217.353 209.65 219.292 207.538 220.69 204.977C222.088 202.415 222.899 199.487 223.047 196.467C223.194 193.446 222.674 190.432 221.534 187.705C224.751 182.72 226.725 176.02 226.725 168.647Z" fill="#8E44AD"/>
<path opacity="0.2" d="M227.638 168.647C227.638 161.273 225.665 154.574 222.448 149.588C223.587 146.862 224.108 143.848 223.96 140.827C223.812 137.807 223.002 134.879 221.604 132.317C220.206 129.755 218.267 127.644 215.967 126.181C213.668 124.718 211.084 123.95 208.457 123.95C205.83 123.95 203.246 124.718 200.946 126.181C198.647 127.644 196.708 129.755 195.31 132.317C193.912 134.879 193.101 137.807 192.954 140.827C192.806 143.848 193.326 146.862 194.466 149.588C191.249 154.574 189.275 161.273 189.275 168.647C189.275 176.02 191.249 182.72 194.466 187.705C193.326 190.432 192.806 193.446 192.954 196.467C193.101 199.487 193.912 202.415 195.31 204.977C196.708 207.538 198.647 209.65 200.946 211.113C203.246 212.576 205.83 213.344 208.457 213.344C211.084 213.344 213.668 212.576 215.967 211.113C218.267 209.65 220.206 207.538 221.604 204.977C223.002 202.415 223.812 199.487 223.96 196.467C224.108 193.446 223.587 190.432 222.448 187.705C225.665 182.72 227.638 176.02 227.638 168.647Z" fill="#8E44AD"/>
<path opacity="0.2" d="M210.284 236.494H206.63L208.457 167.069L210.284 236.494Z" fill="#8E44AD"/>
<path opacity="0.2" d="M208.913 184.42L220.787 178.64L208.913 186.003V184.42Z" fill="#8E44AD"/>
<path opacity="0.2" d="M207.834 190.737L204.346 186.003L207.764 193.366L207.834 190.737Z" fill="#8E44AD"/>
</g>
<path d="M168.724 210.372H168.069V221.68H168.724V210.372Z" fill="#535461"/>
<path d="M169.051 223.188H167.415V236.38H169.051V223.188Z" fill="#535461"/>
<path d="M203.745 223.188H202.109V236.38H203.745V223.188Z" fill="#535461"/>
<path opacity="0.1" d="M169.051 223.188H167.415V236.38H169.051V223.188Z" fill="black"/>
<path opacity="0.1" d="M203.745 223.188H202.109V236.38H203.745V223.188Z" fill="black"/>
<path d="M202.763 221.68H203.418V210.372H202.763V221.68Z" fill="#535461"/>
<path opacity="0.1" d="M168.724 210.372H168.069V221.68H168.724V210.372Z" fill="black"/>
<path opacity="0.1" d="M202.763 221.68H203.418V210.372H202.763V221.68Z" fill="black"/>
<path d="M206.363 209.618H165.124V211.88H206.363V209.618Z" fill="#535461"/>
<path d="M206.363 213.388H165.124V215.649H206.363V213.388Z" fill="#535461"/>
<path d="M206.363 217.157H165.124V219.419H206.363V217.157Z" fill="#535461"/>
<path d="M206.363 221.303H165.124V225.449H206.363V221.303Z" fill="#535461"/>
<path d="M129.611 73.7351H114.883V106.528H129.611V73.7351Z" fill="#E0E0E0"/>
<path d="M144.831 124.055V236.003H12.6012V124.055L23.7293 116.177L34.2031 108.759L78.8796 77.1272L144.831 124.055Z" fill="#EEEEEE"/>
<path opacity="0.1" d="M128.139 236.004V118.262L126.175 119.652V236.004H128.139Z" fill="black"/>
<path d="M93.4445 183.799H63.9874V235.815H93.4445V183.799Z" fill="#8E44AD"/>
<path d="M89.0259 211.315C89.7489 211.315 90.3351 210.639 90.3351 209.807C90.3351 208.974 89.7489 208.299 89.0259 208.299C88.3028 208.299 87.7167 208.974 87.7167 209.807C87.7167 210.639 88.3028 211.315 89.0259 211.315Z" fill="#535461"/>
<path opacity="0.1" d="M129.611 74.1119H114.883V75.9966H129.611V74.1119Z" fill="black"/>
<path d="M131.902 71.8503H112.264V75.6196H131.902V71.8503Z" fill="#E0E0E0"/>
<path opacity="0.1" d="M144.831 150.44H12.6011V153.456H144.831V150.44Z" fill="black"/>
<path d="M144.831 150.063H12.6011V153.079H144.831V150.063Z" fill="white"/>
<path opacity="0.1" d="M128.138 71.8503H124.538V106.528H128.138V71.8503Z" fill="black"/>
<path opacity="0.1" d="M122.902 72.0388H121.92V106.716H122.902V72.0388Z" fill="black"/>
<path opacity="0.1" d="M141.558 119.532V236.003H131.084V116.177L141.558 119.532Z" fill="black"/>
<path opacity="0.1" d="M31.2574 108.759V236.004H20.7836V116.178L31.2574 108.759Z" fill="black"/>
<path opacity="0.1" d="M17.8378 236.004V118.262L15.874 119.652V236.004H17.8378Z" fill="black"/>
<path opacity="0.1" d="M78.8797 64.6885L0 130.651L5.23666 140.452L78.8797 82.7812L152.522 140.452L157.759 130.651L78.8797 64.6885Z" fill="black"/>
<path d="M78.8797 63.9351L0 129.898L5.23666 139.698L78.8797 82.0278L152.522 139.698L157.759 129.898L78.8797 63.9351Z" fill="#8E44AD"/>
<path opacity="0.7" d="M51.059 170.983H23.5657V202.645H51.059V170.983Z" fill="#8E44AD"/>
<path opacity="0.1" d="M51.8773 201.703H22.4202V205.472H51.8773V201.703Z" fill="black"/>
<path d="M51.8773 200.949H22.4202V204.718H51.8773V200.949Z" fill="#535461"/>
<path opacity="0.15" d="M35.0605 171.172L23.7292 189.177V180.003L30.0985 171.172H35.0605Z" fill="white"/>
<path opacity="0.15" d="M44.7945 171.172L23.7292 196.66V192.163L39.4494 171.172H44.7945Z" fill="white"/>
<path d="M23.5657 186.814H51.059" stroke="#535461" stroke-width="2" stroke-miterlimit="10"/>
<path d="M23.7294 171.172H51.2227" stroke="#535461" stroke-width="2" stroke-miterlimit="10"/>
<path d="M50.8954 171.172V202.834" stroke="#535461" stroke-width="2" stroke-miterlimit="10"/>
<path d="M23.7294 170.795V202.457" stroke="#535461" stroke-width="2" stroke-miterlimit="10"/>
<path opacity="0.7" d="M106.373 202.645H133.866V170.983H106.373V202.645Z" fill="#8E44AD"/>
<path opacity="0.1" d="M105.555 205.472H135.012V201.703H105.555V205.472Z" fill="black"/>
<path d="M105.555 204.718H135.012V200.949H105.555V204.718Z" fill="#535461"/>
<path opacity="0.15" d="M122.371 171.172L133.702 189.177V180.003L127.333 171.172H122.371Z" fill="white"/>
<path opacity="0.15" d="M112.638 171.172L133.702 196.66V192.163L117.982 171.172H112.638Z" fill="white"/>
<path d="M133.866 186.814H106.373" stroke="#535461" stroke-width="2" stroke-miterlimit="10"/>
<path d="M133.703 171.172H106.209" stroke="#535461" stroke-width="2" stroke-miterlimit="10"/>
<path d="M106.537 171.172V202.834" stroke="#535461" stroke-width="2" stroke-miterlimit="10"/>
<path d="M133.703 170.795V202.457" stroke="#535461" stroke-width="2" stroke-miterlimit="10"/>
<path opacity="0.7" d="M64.8057 138.19H92.299V106.528H64.8057V138.19Z" fill="#8E44AD"/>
<path opacity="0.1" d="M63.9873 141.017H93.4445V137.248H63.9873V141.017Z" fill="black"/>
<path d="M63.9873 140.263H93.4445V136.494H63.9873V140.263Z" fill="#535461"/>
<path opacity="0.15" d="M80.804 106.716L92.1352 124.722V115.548L85.7659 106.716H80.804Z" fill="white"/>
<path opacity="0.15" d="M71.0703 106.716L92.1351 132.204V127.708L76.4149 106.716H71.0703Z" fill="white"/>
<path d="M92.299 122.359H64.8057" stroke="#535461" stroke-width="2" stroke-miterlimit="10"/>
<path d="M92.1353 106.716H64.642" stroke="#535461" stroke-width="2" stroke-miterlimit="10"/>
<path d="M78.5524 106.528V138.19" stroke="#535461" stroke-width="2" stroke-miterlimit="10"/>
<path d="M64.9694 106.716V138.379" stroke="#535461" stroke-width="2" stroke-miterlimit="10"/>
<path d="M92.1353 106.339V138.002" stroke="#535461" stroke-width="2" stroke-miterlimit="10"/>
<path opacity="0.1" d="M365.432 149.686H356.922V236.003H365.432V149.686Z" fill="black"/>
<path d="M349.23 73.7351H334.502V106.528H349.23V73.7351Z" fill="#E0E0E0"/>
<path d="M364.45 124.055V236.003H232.22V124.055L243.348 116.177L253.822 108.759L298.499 77.1272L364.45 124.055Z" fill="#EEEEEE"/>
<path d="M313.064 183.799H283.606V235.815H313.064V183.799Z" fill="#8E44AD"/>
<path d="M308.645 211.315C309.368 211.315 309.954 210.639 309.954 209.807C309.954 208.974 309.368 208.299 308.645 208.299C307.922 208.299 307.336 208.974 307.336 209.807C307.336 210.639 307.922 211.315 308.645 211.315Z" fill="#535461"/>
<path opacity="0.1" d="M349.23 74.1119H334.502V75.9966H349.23V74.1119Z" fill="black"/>
<path d="M351.521 71.8503H331.883V75.6196H351.521V71.8503Z" fill="#E0E0E0"/>
<path opacity="0.1" d="M364.45 150.44H232.22V153.456H364.45V150.44Z" fill="black"/>
<path d="M364.45 150.063H232.22V153.079H364.45V150.063Z" fill="white"/>
<path opacity="0.1" d="M347.758 71.8503H344.157V106.528H347.758V71.8503Z" fill="black"/>
<path opacity="0.1" d="M342.521 72.0388H341.539V106.716H342.521V72.0388Z" fill="black"/>
<path opacity="0.1" d="M361.177 119.532V236.003H350.703V116.177L361.177 119.532Z" fill="black"/>
<path opacity="0.1" d="M250.876 108.759V236.004H240.402V116.178L250.876 108.759Z" fill="black"/>
<path opacity="0.1" d="M237.457 236.004V118.262L235.493 119.652V236.004H237.457Z" fill="black"/>
<path opacity="0.1" d="M298.499 64.6885L219.619 130.651L224.856 140.452L298.499 82.7812L372.142 140.452L377.378 130.651L298.499 64.6885Z" fill="black"/>
<path d="M298.499 63.9351L219.619 129.898L224.856 139.698L298.499 82.0278L372.142 139.698L377.378 129.898L298.499 63.9351Z" fill="#8E44AD"/>
<path opacity="0.7" d="M270.678 170.983H243.185V202.645H270.678V170.983Z" fill="#8E44AD"/>
<path opacity="0.1" d="M271.496 201.703H242.039V205.472H271.496V201.703Z" fill="black"/>
<path d="M271.496 200.949H242.039V204.718H271.496V200.949Z" fill="#535461"/>
<path opacity="0.15" d="M254.679 171.172L243.348 189.177V180.003L249.717 171.172H254.679Z" fill="white"/>
<path opacity="0.15" d="M264.414 171.172L243.348 196.66V192.163L259.069 171.172H264.414Z" fill="white"/>
<path d="M243.185 186.814H270.678" stroke="#535461" stroke-width="2" stroke-miterlimit="10"/>
<path d="M243.349 171.172H270.842" stroke="#535461" stroke-width="2" stroke-miterlimit="10"/>
<path d="M270.514 171.172V202.834" stroke="#535461" stroke-width="2" stroke-miterlimit="10"/>
<path d="M243.349 170.795V202.457" stroke="#535461" stroke-width="2" stroke-miterlimit="10"/>
<path opacity="0.7" d="M325.992 202.645H353.485V170.983H325.992V202.645Z" fill="#8E44AD"/>
<path opacity="0.1" d="M325.174 205.472H354.631V201.703H325.174V205.472Z" fill="black"/>
<path d="M325.174 204.718H354.631V200.949H325.174V204.718Z" fill="#535461"/>
<path opacity="0.15" d="M341.991 171.172L353.322 189.177V180.003L346.953 171.172H341.991Z" fill="white"/>
<path opacity="0.15" d="M332.256 171.172L353.322 196.66V192.163L337.601 171.172H332.256Z" fill="white"/>
<path d="M353.485 186.814H325.992" stroke="#535461" stroke-width="2" stroke-miterlimit="10"/>
<path d="M353.322 171.172H325.828" stroke="#535461" stroke-width="2" stroke-miterlimit="10"/>
<path d="M326.156 171.172V202.834" stroke="#535461" stroke-width="2" stroke-miterlimit="10"/>
<path d="M353.322 170.795V202.457" stroke="#535461" stroke-width="2" stroke-miterlimit="10"/>
<path opacity="0.7" d="M284.425 138.19H311.918V106.528H284.425V138.19Z" fill="#8E44AD"/>
<path opacity="0.1" d="M283.606 141.017H313.064V137.248H283.606V141.017Z" fill="black"/>
<path d="M283.606 140.263H313.064V136.494H283.606V140.263Z" fill="#535461"/>
<path opacity="0.15" d="M300.423 106.716L311.754 124.722V115.548L305.385 106.716H300.423Z" fill="white"/>
<path opacity="0.15" d="M290.689 106.716L311.755 132.204V127.708L296.034 106.716H290.689Z" fill="white"/>
<path d="M311.918 122.359H284.425" stroke="#535461" stroke-width="2" stroke-miterlimit="10"/>
<path d="M311.754 106.716H284.261" stroke="#535461" stroke-width="2" stroke-miterlimit="10"/>
<path d="M298.171 106.528V138.19" stroke="#535461" stroke-width="2" stroke-miterlimit="10"/>
<path d="M284.589 106.716V138.379" stroke="#535461" stroke-width="2" stroke-miterlimit="10"/>
<path d="M311.754 106.339V138.002" stroke="#535461" stroke-width="2" stroke-miterlimit="10"/>
<path d="M154.977 187.38C155.033 182.486 153.73 177.701 151.258 173.721C152.074 171.767 152.447 169.607 152.341 167.442C152.235 165.277 151.654 163.179 150.653 161.343C149.651 159.507 148.261 157.994 146.613 156.946C144.965 155.897 143.113 155.347 141.231 155.347C139.348 155.347 137.496 155.897 135.848 156.946C134.2 157.994 132.81 159.507 131.809 161.343C130.807 163.179 130.226 165.277 130.12 167.442C130.014 169.607 130.387 171.767 131.204 173.721C128.782 177.73 127.484 182.496 127.484 187.38C127.484 192.263 128.782 197.029 131.204 201.038C130.387 202.992 130.014 205.152 130.12 207.317C130.226 209.482 130.807 211.58 131.809 213.416C132.81 215.252 134.2 216.765 135.848 217.813C137.496 218.862 139.348 219.412 141.231 219.412C143.113 219.412 144.965 218.862 146.613 217.813C148.261 216.765 149.651 215.252 150.653 213.416C151.654 211.58 152.235 209.482 152.341 207.317C152.447 205.152 152.074 202.992 151.258 201.038C153.73 197.058 155.033 192.273 154.977 187.38Z" fill="#16A085"/>
<path opacity="0.1" d="M154.977 187.38C155.033 182.486 153.73 177.701 151.258 173.721C152.074 171.767 152.447 169.607 152.341 167.442C152.235 165.277 151.654 163.179 150.653 161.343C149.651 159.507 148.261 157.994 146.613 156.946C144.965 155.897 143.113 155.347 141.231 155.347C139.348 155.347 137.496 155.897 135.848 156.946C134.2 157.994 132.81 159.507 131.809 161.343C130.807 163.179 130.226 165.277 130.12 167.442C130.014 169.607 130.387 171.767 131.204 173.721C128.782 177.73 127.484 182.496 127.484 187.38C127.484 192.263 128.782 197.029 131.204 201.038C130.387 202.992 130.014 205.152 130.12 207.317C130.226 209.482 130.807 211.58 131.809 213.416C132.81 215.252 134.2 216.765 135.848 217.813C137.496 218.862 139.348 219.412 141.231 219.412C143.113 219.412 144.965 218.862 146.613 217.813C148.261 216.765 149.651 215.252 150.653 213.416C151.654 211.58 152.235 209.482 152.341 207.317C152.447 205.152 152.074 202.992 151.258 201.038C153.73 197.058 155.033 192.273 154.977 187.38Z" fill="black"/>
<path d="M155.632 187.38C155.688 182.486 154.384 177.701 151.912 173.721C152.729 171.767 153.102 169.607 152.996 167.442C152.89 165.277 152.309 163.179 151.307 161.343C150.305 159.507 148.915 157.994 147.268 156.946C145.62 155.897 143.768 155.347 141.885 155.347C140.002 155.347 138.15 155.897 136.503 156.946C134.855 157.994 133.465 159.507 132.463 161.343C131.461 163.179 130.88 165.277 130.774 167.442C130.669 169.607 131.041 171.767 131.858 173.721C129.436 177.73 128.138 182.496 128.138 187.38C128.138 192.263 129.436 197.029 131.858 201.038C131.041 202.992 130.669 205.152 130.774 207.317C130.88 209.482 131.461 211.58 132.463 213.416C133.465 215.252 134.855 216.765 136.503 217.813C138.15 218.862 140.002 219.412 141.885 219.412C143.768 219.412 145.62 218.862 147.268 217.813C148.915 216.765 150.305 215.252 151.307 213.416C152.309 211.58 152.89 209.482 152.996 207.317C153.102 205.152 152.729 202.992 151.912 201.038C154.384 197.058 155.688 192.273 155.632 187.38Z" fill="#16A085"/>
<path d="M143.194 236.003H140.576L141.885 186.249L143.194 236.003Z" fill="#5D291B"/>
<path d="M142.212 198.684L150.722 194.541L142.212 199.818V198.684Z" fill="#5D291B"/>
<path d="M141.439 203.21L138.939 199.818L141.389 205.095L141.439 203.21Z" fill="#5D291B"/>
<path d="M245.64 187.379C245.695 182.486 244.392 177.701 241.92 173.721C242.737 171.767 243.109 169.607 243.004 167.442C242.898 165.277 242.317 163.179 241.315 161.343C240.313 159.507 238.923 157.994 237.275 156.946C235.628 155.897 233.776 155.347 231.893 155.347C230.01 155.347 228.158 155.897 226.51 156.946C224.863 157.994 223.473 159.507 222.471 161.343C221.469 163.179 220.888 165.277 220.782 167.442C220.676 169.607 221.049 171.767 221.866 173.721C219.444 177.73 218.146 182.496 218.146 187.379C218.146 192.263 219.444 197.029 221.866 201.038C221.049 202.992 220.676 205.152 220.782 207.317C220.888 209.482 221.469 211.58 222.471 213.416C223.473 215.252 224.863 216.765 226.51 217.813C228.158 218.862 230.01 219.412 231.893 219.412C233.776 219.412 235.628 218.862 237.275 217.813C238.923 216.765 240.313 215.252 241.315 213.416C242.317 211.58 242.898 209.482 243.004 207.317C243.109 205.152 242.737 202.992 241.92 201.038C244.392 197.058 245.695 192.273 245.64 187.379Z" fill="#16A085"/>
<path opacity="0.1" d="M245.64 187.379C245.695 182.486 244.392 177.701 241.92 173.721C242.737 171.767 243.109 169.607 243.004 167.442C242.898 165.277 242.317 163.179 241.315 161.343C240.313 159.507 238.923 157.994 237.275 156.946C235.628 155.897 233.776 155.347 231.893 155.347C230.01 155.347 228.158 155.897 226.51 156.946C224.863 157.994 223.473 159.507 222.471 161.343C221.469 163.179 220.888 165.277 220.782 167.442C220.676 169.607 221.049 171.767 221.866 173.721C219.444 177.73 218.146 182.496 218.146 187.379C218.146 192.263 219.444 197.029 221.866 201.038C221.049 202.992 220.676 205.152 220.782 207.317C220.888 209.482 221.469 211.58 222.471 213.416C223.473 215.252 224.863 216.765 226.51 217.813C228.158 218.862 230.01 219.412 231.893 219.412C233.776 219.412 235.628 218.862 237.275 217.813C238.923 216.765 240.313 215.252 241.315 213.416C242.317 211.58 242.898 209.482 243.004 207.317C243.109 205.152 242.737 202.992 241.92 201.038C244.392 197.058 245.695 192.273 245.64 187.379Z" fill="black"/>
<path d="M246.294 187.38C246.35 182.486 245.047 177.701 242.575 173.721C243.391 171.767 243.764 169.607 243.658 167.442C243.552 165.277 242.971 163.179 241.97 161.343C240.968 159.507 239.578 157.994 237.93 156.946C236.282 155.897 234.43 155.347 232.548 155.347C230.665 155.347 228.813 155.897 227.165 156.946C225.517 157.994 224.127 159.507 223.126 161.343C222.124 163.179 221.543 165.277 221.437 167.442C221.331 169.607 221.704 171.767 222.521 173.721C220.099 177.73 218.801 182.496 218.801 187.38C218.801 192.263 220.099 197.029 222.521 201.038C221.704 202.992 221.331 205.152 221.437 207.317C221.543 209.482 222.124 211.58 223.126 213.416C224.127 215.252 225.517 216.765 227.165 217.813C228.813 218.862 230.665 219.412 232.548 219.412C234.43 219.412 236.282 218.862 237.93 217.813C239.578 216.765 240.968 215.252 241.97 213.416C242.971 211.58 243.552 209.482 243.658 207.317C243.764 205.152 243.391 202.992 242.575 201.038C245.047 197.058 246.35 192.273 246.294 187.38Z" fill="#16A085"/>
<path d="M233.857 236.003H231.238L232.547 186.249L233.857 236.003Z" fill="#5D291B"/>
<path d="M232.875 198.684L241.384 194.541L232.875 199.818V198.684Z" fill="#5D291B"/>
<path d="M232.101 203.21L229.601 199.818L232.052 205.095L232.101 203.21Z" fill="#5D291B"/>
<g opacity="0.7">
<path opacity="0.7" d="M180.387 219.796L180.117 219.738L180.648 217.481C181.486 210.248 178.322 209.52 177.136 209.495C177 209.438 176.86 209.389 176.719 209.349V208.497C177.466 208.285 178.142 207.825 178.664 207.175C179.186 206.525 179.531 205.713 179.656 204.84L179.666 204.841C179.855 204.841 180.008 204.511 180.008 204.103C180.015 203.887 179.963 203.674 179.859 203.494C179.873 203.339 179.879 203.181 179.88 203.021C179.88 202.384 179.769 201.754 179.551 201.168C179.334 200.582 179.016 200.054 178.616 199.614C178.562 199.298 178.464 198.995 178.326 198.715C178.035 198.124 177.551 197.508 177.748 196.868L176.469 197.02L176.457 196.049C176.058 196.132 175.891 196.664 175.654 197.043C175.085 197.956 173.941 198.083 173.185 198.793C172.929 199.035 172.35 199.77 172.46 200.252C171.952 201.056 171.679 202.026 171.68 203.021C171.68 203.181 171.686 203.339 171.7 203.494C171.596 203.674 171.544 203.887 171.551 204.103C171.551 204.511 171.704 204.841 171.893 204.841L171.9 204.84C172.027 205.713 172.373 206.525 172.895 207.175C173.418 207.825 174.094 208.284 174.84 208.497V209.35C174.699 209.389 174.56 209.438 174.423 209.495C173.237 209.52 170.073 210.248 170.911 217.481L171.442 219.738L171.316 219.766C170.936 219.847 170.6 220.099 170.381 220.467C170.163 220.834 170.08 221.286 170.151 221.724L172.247 234.659C172.269 234.791 172.335 234.909 172.432 234.985C172.528 235.061 172.647 235.09 172.762 235.065L173.132 234.986V235.237C172.927 235.354 172.754 235.534 172.633 235.758C172.513 235.982 172.449 236.24 172.448 236.503V236.663H174.926V236.503C174.925 236.259 174.87 236.019 174.766 235.806C174.661 235.594 174.51 235.416 174.328 235.291V234.729L174.665 234.656C174.722 234.644 174.777 234.619 174.825 234.582C174.874 234.546 174.916 234.499 174.948 234.444C174.981 234.389 175.004 234.327 175.016 234.262C175.028 234.196 175.029 234.129 175.018 234.063L173.048 221.908H178.512L176.541 234.063C176.52 234.196 176.545 234.333 176.611 234.444C176.677 234.555 176.779 234.631 176.894 234.656L177.232 234.729V235.291C177.05 235.416 176.899 235.594 176.794 235.806C176.689 236.019 176.634 236.259 176.634 236.503V236.663H179.111V236.503C179.111 236.24 179.047 235.982 178.926 235.758C178.805 235.534 178.633 235.354 178.428 235.237V234.986L178.797 235.065C178.912 235.09 179.031 235.061 179.128 234.985C179.224 234.909 179.291 234.791 179.312 234.659L181.436 221.559C181.467 221.364 181.465 221.163 181.43 220.969C181.394 220.775 181.325 220.591 181.228 220.427C181.131 220.264 181.006 220.124 180.862 220.015C180.718 219.907 180.556 219.833 180.387 219.796Z" fill="url(#paint0_linear)"/>
</g>
<path d="M174.383 233.339H173.232V235.137H174.383V233.339Z" fill="#FDB797"/>
<path d="M178.328 233.339H177.177V235.137H178.328V233.339Z" fill="#FDB797"/>
<path d="M179.561 218.574H172V221.698H179.561V218.574Z" fill="#4D8AF0"/>
<g opacity="0.05">
<path opacity="0.05" d="M179.561 218.574H172V221.698H179.561V218.574Z" fill="black"/>
</g>
<path opacity="0.1" d="M172 219.142C173.244 219.491 174.507 219.744 175.78 219.899C177.053 219.744 178.316 219.491 179.561 219.142V218.669H172V219.142Z" fill="black"/>
<path d="M179.561 219.048C178.316 219.396 177.053 219.649 175.78 219.805C174.507 219.649 173.244 219.396 172 219.048V213.842C172 213.27 172.097 212.704 172.287 212.176C172.477 211.648 172.756 211.168 173.107 210.764C173.458 210.359 173.875 210.039 174.333 209.82C174.792 209.601 175.284 209.488 175.78 209.488C176.277 209.488 176.768 209.601 177.227 209.82C177.685 210.039 178.102 210.359 178.453 210.764C178.804 211.168 179.083 211.648 179.273 212.176C179.463 212.704 179.561 213.27 179.561 213.842V219.048Z" fill="#F55F44"/>
<path d="M174.876 207.312H176.684V209.697C176.684 209.831 176.661 209.964 176.617 210.088C176.572 210.212 176.507 210.324 176.424 210.419C176.342 210.514 176.244 210.59 176.136 210.641C176.029 210.692 175.913 210.719 175.797 210.719H175.763C175.647 210.719 175.532 210.692 175.424 210.641C175.316 210.59 175.218 210.514 175.136 210.419C175.054 210.324 174.988 210.212 174.944 210.088C174.899 209.964 174.876 209.831 174.876 209.697V207.312H174.876Z" fill="#FDB797"/>
<path d="M174.517 234.004L173.067 234.316C172.906 234.351 172.74 234.31 172.604 234.203C172.469 234.096 172.376 233.932 172.346 233.746L170.482 222.246C170.382 221.632 170.499 220.998 170.805 220.484C171.111 219.969 171.583 219.615 172.115 219.501L172.165 219.49C172.244 219.473 172.327 219.474 172.406 219.494C172.485 219.513 172.561 219.55 172.628 219.603C172.695 219.656 172.752 219.723 172.797 219.802C172.841 219.88 172.871 219.968 172.886 220.06L175.012 233.173C175.042 233.359 175.007 233.551 174.914 233.707C174.821 233.862 174.678 233.97 174.517 234.004Z" fill="#4D8AF0"/>
<path d="M177.094 234.015L178.442 234.305C178.529 234.324 178.618 234.322 178.704 234.301C178.79 234.28 178.871 234.24 178.944 234.183C179.017 234.126 179.079 234.052 179.127 233.967C179.175 233.883 179.208 233.788 179.224 233.688L181.088 222.188C181.185 221.59 181.072 220.972 180.773 220.47C180.474 219.968 180.015 219.623 179.495 219.512L179.446 219.501C179.36 219.483 179.271 219.484 179.185 219.505C179.099 219.526 179.017 219.566 178.944 219.623C178.872 219.68 178.81 219.754 178.762 219.839C178.714 219.924 178.681 220.019 178.664 220.118L176.558 233.115C176.525 233.316 176.563 233.524 176.664 233.693C176.764 233.862 176.919 233.977 177.094 234.015Z" fill="#4D8AF0"/>
<path opacity="0.1" d="M174.876 208.889C175.47 209.057 176.09 209.057 176.684 208.889V207.406H174.876V208.889Z" fill="black"/>
<path d="M175.78 208.069C177.959 208.069 179.725 206.035 179.725 203.526C179.725 201.017 177.959 198.983 175.78 198.983C173.601 198.983 171.835 201.017 171.835 203.526C171.835 206.035 173.601 208.069 175.78 208.069Z" fill="#333333"/>
<path d="M175.78 208.921C177.868 208.921 179.561 206.971 179.561 204.567C179.561 202.162 177.868 200.213 175.78 200.213C173.692 200.213 172 202.162 172 204.567C172 206.971 173.692 208.921 175.78 208.921Z" fill="#FDB797"/>
<path d="M173.284 199.458C174.011 198.774 175.111 198.652 175.659 197.774C175.887 197.41 176.048 196.897 176.432 196.818L176.443 197.751L177.674 197.606C177.484 198.222 177.95 198.814 178.23 199.383C178.437 199.803 178.55 200.276 178.559 200.758C178.132 201.054 177.602 200.731 177.126 200.559C176.657 200.417 176.173 200.349 175.688 200.359C175.44 200.339 175.19 200.355 174.946 200.406C174.735 200.472 174.53 200.559 174.333 200.666C174.006 200.824 172.972 201.419 172.668 201.035C172.323 200.599 173.003 199.722 173.284 199.458Z" fill="#333333"/>
<path opacity="0.1" d="M173.49 202.384C173.696 202.512 173.924 202.591 174.158 202.616C175.126 202.768 176.112 202.64 177.027 202.244C177.113 202.458 177.239 202.648 177.395 202.8C177.551 202.952 177.734 203.063 177.932 203.125C178.327 203.245 178.735 203.297 179.144 203.28C179.233 203.292 179.324 203.272 179.404 203.223C179.586 203.082 179.498 202.758 179.392 202.537L178.865 201.437C178.726 201.102 178.537 200.797 178.308 200.535C177.99 200.246 177.611 200.058 177.209 199.992C176.274 199.777 175.309 199.814 174.388 200.1C173.404 200.406 172.14 201.443 173.49 202.384Z" fill="black"/>
<path d="M173.49 202.289C173.696 202.418 173.924 202.497 174.158 202.521C175.126 202.673 176.112 202.546 177.027 202.15C177.113 202.363 177.239 202.553 177.395 202.705C177.551 202.857 177.734 202.968 177.932 203.03C178.327 203.15 178.735 203.203 179.144 203.186C179.233 203.197 179.324 203.177 179.404 203.128C179.586 202.987 179.498 202.663 179.392 202.442L178.865 201.342C178.726 201.007 178.537 200.702 178.308 200.44C177.99 200.151 177.611 199.964 177.209 199.897C176.274 199.683 175.309 199.72 174.388 200.005C173.404 200.311 172.14 201.348 173.49 202.289Z" fill="#333333"/>
<path d="M179.52 205.277C179.701 205.277 179.848 204.959 179.848 204.567C179.848 204.175 179.701 203.857 179.52 203.857C179.338 203.857 179.191 204.175 179.191 204.567C179.191 204.959 179.338 205.277 179.52 205.277Z" fill="#FDB797"/>
<path d="M172.041 205.277C172.222 205.277 172.37 204.959 172.37 204.567C172.37 204.175 172.222 203.857 172.041 203.857C171.859 203.857 171.712 204.175 171.712 204.567C171.712 204.959 171.859 205.277 172.041 205.277Z" fill="#FDB797"/>
<path d="M174.891 209.778C174.891 209.778 170.109 208.921 171.096 217.439L171.671 219.88L173.315 219.805C173.315 219.805 172.246 216.965 172.904 215.072C173.561 213.18 174.891 209.778 174.891 209.778Z" fill="#F55F44"/>
<path d="M176.669 209.778C176.669 209.778 181.451 208.921 180.465 217.439L179.89 219.88L178.246 219.805C178.246 219.805 179.314 216.965 178.657 215.072C177.999 213.18 176.669 209.778 176.669 209.778Z" fill="#F55F44"/>
<path d="M172.575 221.224C173.074 221.224 173.479 220.758 173.479 220.183C173.479 219.608 173.074 219.142 172.575 219.142C172.076 219.142 171.671 219.608 171.671 220.183C171.671 220.758 172.076 221.224 172.575 221.224Z" fill="#FDB797"/>
<path d="M179.15 221.224C179.649 221.224 180.054 220.758 180.054 220.183C180.054 219.608 179.649 219.142 179.15 219.142C178.65 219.142 178.246 219.608 178.246 220.183C178.246 220.758 178.65 221.224 179.15 221.224Z" fill="#FDB797"/>
<path d="M173.745 234.38H173.789C174.099 234.38 174.396 234.522 174.616 234.775C174.835 235.027 174.958 235.37 174.958 235.727V235.894H172.575V235.727C172.575 235.55 172.605 235.375 172.664 235.212C172.723 235.048 172.809 234.9 172.918 234.775C173.026 234.65 173.155 234.55 173.297 234.483C173.439 234.415 173.591 234.38 173.745 234.38Z" fill="#333333"/>
<path d="M177.772 234.38H177.816C178.126 234.38 178.423 234.522 178.643 234.775C178.862 235.027 178.985 235.37 178.985 235.727V235.894H176.602V235.727C176.602 235.55 176.632 235.375 176.691 235.212C176.75 235.048 176.836 234.9 176.945 234.775C177.053 234.65 177.182 234.55 177.324 234.483C177.466 234.415 177.618 234.38 177.772 234.38Z" fill="#333333"/>
<path opacity="0.1" d="M172.822 214.315C172.822 214.315 172.493 216.303 173.068 217.155L172.822 214.315Z" fill="black"/>
<path opacity="0.1" d="M178.739 214.315C178.739 214.315 179.067 216.303 178.492 217.155L178.739 214.315Z" fill="black"/>
<path d="M239.094 192.28C239.997 192.28 240.73 191.436 240.73 190.395C240.73 189.354 239.997 188.51 239.094 188.51C238.19 188.51 237.457 189.354 237.457 190.395C237.457 191.436 238.19 192.28 239.094 192.28Z" fill="#F55F44"/>
<path d="M36.7985 226.726C36.81 226.553 36.8214 226.38 36.8214 226.203C36.8229 225.007 36.5493 223.831 36.0284 222.796C35.5075 221.761 34.7579 220.903 33.8557 220.31C32.9536 219.717 31.9312 219.409 30.8924 219.419C29.8536 219.428 28.8355 219.754 27.9415 220.364C27.4727 219.353 26.789 218.496 25.9544 217.872C25.1197 217.248 24.1614 216.878 23.1689 216.797C22.1764 216.716 21.1823 216.926 20.2794 217.407C19.3765 217.889 18.5943 218.626 18.006 219.55C16.8099 219.275 15.5691 219.435 14.4551 220.007C13.3411 220.579 12.4088 221.535 11.7871 222.744C11.1653 223.952 10.8848 225.353 10.9842 226.753C11.0836 228.153 11.558 229.483 12.342 230.56C11.9203 231.818 11.8342 233.192 12.0948 234.507C12.3554 235.821 12.9508 237.016 13.8047 237.939C14.6586 238.862 15.7323 239.47 16.8881 239.685C18.044 239.901 19.2294 239.715 20.2927 239.15C21.3344 239.705 22.4946 239.895 23.6293 239.696C24.764 239.498 25.8231 238.92 26.6751 238.035C27.4597 238.852 28.422 239.408 29.4595 239.645C30.497 239.881 31.5708 239.789 32.5665 239.378C34.0125 239.968 35.6013 239.885 36.9949 239.146C38.3884 238.408 39.4767 237.072 40.0281 235.423C40.5795 233.775 40.5506 231.944 39.9474 230.319C39.3442 228.695 38.2145 227.406 36.7985 226.726H36.7985Z" fill="#16A085"/>
<path opacity="0.1" d="M36.7985 226.726C36.81 226.553 36.8214 226.38 36.8214 226.203C36.8229 225.007 36.5493 223.831 36.0284 222.796C35.5075 221.761 34.7579 220.903 33.8557 220.31C32.9536 219.717 31.9312 219.409 30.8924 219.419C29.8536 219.428 28.8355 219.754 27.9415 220.364C27.4727 219.353 26.789 218.496 25.9544 217.872C25.1197 217.248 24.1614 216.878 23.1689 216.797C22.1764 216.716 21.1823 216.926 20.2794 217.407C19.3765 217.889 18.5943 218.626 18.006 219.55C16.8099 219.275 15.5691 219.435 14.4551 220.007C13.3411 220.579 12.4088 221.535 11.7871 222.744C11.1653 223.952 10.8848 225.353 10.9842 226.753C11.0836 228.153 11.558 229.483 12.342 230.56C11.9203 231.818 11.8342 233.192 12.0948 234.507C12.3554 235.821 12.9508 237.016 13.8047 237.939C14.6586 238.862 15.7323 239.47 16.8881 239.685C18.044 239.901 19.2294 239.715 20.2927 239.15C21.3344 239.705 22.4946 239.895 23.6293 239.696C24.764 239.498 25.8231 238.92 26.6751 238.035C27.4597 238.852 28.422 239.408 29.4595 239.645C30.497 239.881 31.5708 239.789 32.5665 239.378C34.0125 239.968 35.6013 239.885 36.9949 239.146C38.3884 238.408 39.4767 237.072 40.0281 235.423C40.5795 233.775 40.5506 231.944 39.9474 230.319C39.3442 228.695 38.2145 227.406 36.7985 226.726H36.7985Z" fill="black"/>
<path d="M37.453 226.726C37.4645 226.553 37.476 226.38 37.476 226.203C37.4774 225.007 37.2038 223.831 36.6829 222.796C36.162 221.761 35.4124 220.903 34.5103 220.31C33.6082 219.717 32.5857 219.409 31.5469 219.419C30.5081 219.428 29.49 219.754 28.5961 220.364C28.1273 219.353 27.4436 218.496 26.6089 217.872C25.7743 217.248 24.8159 216.878 23.8234 216.797C22.831 216.716 21.8368 216.926 20.9339 217.407C20.031 217.889 19.2489 218.626 18.6606 219.55C17.4644 219.275 16.2236 219.435 15.1096 220.007C13.9956 220.579 13.0634 221.535 12.4416 222.744C11.8199 223.952 11.5393 225.353 11.6387 226.753C11.7381 228.153 12.2126 229.483 12.9965 230.56C12.5748 231.818 12.4887 233.192 12.7493 234.507C13.0099 235.821 13.6053 237.016 14.4592 237.939C15.3132 238.862 16.3868 239.47 17.5427 239.686C18.6985 239.901 19.884 239.715 20.9472 239.15C21.9889 239.705 23.1492 239.895 24.2839 239.696C25.4186 239.498 26.4776 238.92 27.3296 238.035C28.1142 238.852 29.0766 239.408 30.1141 239.645C31.1516 239.881 32.2254 239.789 33.2211 239.378C34.6671 239.968 36.2559 239.885 37.6494 239.146C39.043 238.408 40.1312 237.072 40.6826 235.423C41.2341 233.775 41.2051 231.944 40.6019 230.319C39.9988 228.695 38.869 227.406 37.4531 226.726H37.453Z" fill="#16A085"/>
<path d="M373.318 236.661H5.07324V241H373.318V236.661Z" fill="#333333"/>
<path d="M227.538 34.7681C235.875 34.7681 242.633 26.985 242.633 17.3841C242.633 7.78311 235.875 0 227.538 0C219.201 0 212.443 7.78311 212.443 17.3841C212.443 26.985 219.201 34.7681 227.538 34.7681Z" fill="#FFFFA5"/>
<g opacity="0.3">
<path opacity="0.3" d="M366.212 22.767H325.548C322.825 22.767 320.619 25.3084 320.619 28.4434V28.4434C320.619 31.5784 322.825 34.1198 325.548 34.1198H366.212C368.934 34.1198 371.141 31.5784 371.141 28.4434C371.141 25.3084 368.934 22.767 366.212 22.767Z" fill="#E0E0E0"/>
<path opacity="0.3" d="M353.89 34.1199H313.225C310.503 34.1199 308.296 36.6613 308.296 39.7963V39.7963C308.296 42.9313 310.503 45.4727 313.225 45.4727H353.89C356.612 45.4727 358.819 42.9313 358.819 39.7963C358.819 36.6613 356.612 34.1199 353.89 34.1199Z" fill="#E0E0E0"/>
<path opacity="0.3" d="M366.212 45.4727H325.548C322.825 45.4727 320.619 48.0141 320.619 51.1491V51.1491C320.619 54.2841 322.825 56.8255 325.548 56.8255H366.212C368.934 56.8255 371.141 54.2841 371.141 51.1491C371.141 48.0141 368.934 45.4727 366.212 45.4727Z" fill="#E0E0E0"/>
</g>
<g opacity="0.3">
<path opacity="0.3" d="M133.174 17.113H92.5091C89.7869 17.113 87.5801 19.6545 87.5801 22.7895V22.7895C87.5801 25.9245 89.7869 28.4659 92.5091 28.4659H133.174C135.896 28.4659 138.103 25.9245 138.103 22.7895C138.103 19.6545 135.896 17.113 133.174 17.113Z" fill="#E0E0E0"/>
<path opacity="0.3" d="M120.851 28.4658H80.1866C77.4644 28.4658 75.2576 31.0072 75.2576 34.1422V34.1423C75.2576 37.2773 77.4644 39.8187 80.1866 39.8187H120.851C123.573 39.8187 125.78 37.2773 125.78 34.1422C125.78 31.0072 123.573 28.4658 120.851 28.4658Z" fill="#E0E0E0"/>
<path opacity="0.3" d="M133.174 39.8187H92.5091C89.7869 39.8187 87.5801 42.3601 87.5801 45.4951V45.4952C87.5801 48.6302 89.7869 51.1716 92.5091 51.1716H133.174C135.896 51.1716 138.103 48.6302 138.103 45.4951C138.103 42.3601 135.896 39.8187 133.174 39.8187Z" fill="#E0E0E0"/>
</g>
<g opacity="0.3">
<path opacity="0.3" d="M45.4364 58.0925H56.2187C56.2187 58.0925 52.1558 66.3706 45.4364 58.0925Z" fill="#030B44"/>
<path opacity="0.3" d="M46.087 61.6149L53.1555 52.2382C53.1555 52.2382 55.9201 61.1982 46.087 61.6149Z" fill="#030B44"/>
</g>
<g opacity="0.3">
<path opacity="0.3" d="M163.706 13.2377H174.488C174.488 13.2377 170.425 21.5158 163.706 13.2377Z" fill="#030B44"/>
<path opacity="0.3" d="M164.356 16.7601L171.425 7.38342C171.425 7.38342 174.189 16.3435 164.356 16.7601Z" fill="#030B44"/>
</g>
<g opacity="0.3">
<path opacity="0.3" d="M384.434 53.5693H396C396 53.5693 391.642 62.4495 384.434 53.5693Z" fill="#030B44"/>
<path opacity="0.3" d="M385.132 57.3479L392.714 47.2893C392.714 47.2893 395.68 56.901 385.132 57.3479Z" fill="#030B44"/>
</g>
<path d="M114.593 222.991L113.804 224.477C113.804 224.477 113.766 224.853 114.029 224.625C114.343 224.148 114.603 223.625 114.802 223.072L114.593 222.991Z" fill="#2F2E41"/>
<path d="M121.371 208.774L123.357 204.958C123.486 204.706 123.664 204.492 123.879 204.335C124.093 204.178 124.337 204.082 124.59 204.055C124.814 204.016 125.043 204.072 125.234 204.213C125.425 204.353 125.565 204.569 125.629 204.819C125.758 205.254 125.782 205.722 125.698 206.171C125.615 206.621 125.427 207.036 125.155 207.373C125.155 207.373 124.742 207.502 124.764 207.057L125.236 206.108C125.236 206.108 125.629 204.819 124.531 204.725C123.433 204.631 121.863 208.984 121.863 208.984L121.371 208.774Z" fill="#2F2E41"/>
<path d="M122.581 209.343L121.299 210.618C121.297 211.165 120.877 212.27 120.256 213.608C120.209 213.711 120.16 213.816 120.11 213.921C119.741 214.7 119.312 215.545 118.863 216.399C118.814 216.493 118.764 216.587 118.714 216.682C118.212 217.629 117.69 218.578 117.202 219.448C117.152 219.539 117.101 219.628 117.051 219.718C116.489 220.716 115.982 221.594 115.616 222.221C115.561 222.313 115.51 222.4 115.463 222.482C115.19 222.948 115.027 223.22 115.027 223.22C114.93 223.29 114.817 223.325 114.703 223.321C114.66 223.316 114.62 223.299 114.585 223.272C114.55 223.244 114.521 223.208 114.501 223.164C114.427 222.966 114.4 222.749 114.422 222.534C114.57 221.674 114.82 220.84 115.163 220.057C115.208 219.944 115.256 219.829 115.305 219.713C115.694 218.795 116.177 217.807 116.693 216.828L116.842 216.545C117.343 215.605 117.868 214.68 118.361 213.839C118.413 213.752 118.464 213.666 118.514 213.581C118.999 212.761 119.447 212.03 119.805 211.458C119.859 211.372 119.91 211.291 119.959 211.213C120.368 210.563 120.624 210.173 120.624 210.173L120.916 208.187L121.474 208.574L121.904 208.873L122.581 209.343Z" fill="#3F3D56"/>
<path d="M115.305 219.714L115.616 222.221C115.561 222.313 115.51 222.4 115.463 222.482L115.163 220.057C115.208 219.944 115.256 219.829 115.305 219.714Z" fill="#8E44AD"/>
<path d="M116.842 216.545L117.202 219.448C117.152 219.539 117.101 219.628 117.051 219.718L116.693 216.828L116.842 216.545Z" fill="#8E44AD"/>
<path d="M118.514 213.581L118.863 216.399C118.814 216.493 118.764 216.587 118.714 216.682L118.361 213.839C118.413 213.752 118.464 213.666 118.514 213.581Z" fill="#8E44AD"/>
<path d="M119.959 211.213L120.256 213.609C120.209 213.712 120.16 213.816 120.11 213.921L119.805 211.458C119.859 211.372 119.91 211.291 119.959 211.213Z" fill="#8E44AD"/>
<path d="M130.508 191.875C131.81 191.875 132.865 190.66 132.865 189.161C132.865 187.662 131.81 186.447 130.508 186.447C129.207 186.447 128.152 187.662 128.152 189.161C128.152 190.66 129.207 191.875 130.508 191.875Z" fill="#2F2E41"/>
<path d="M129.031 190.989C129.031 190.989 129.234 193.675 129.031 194.376C128.829 195.077 131.668 194.026 131.668 194.026C131.668 194.026 130.552 190.989 130.755 190.697C130.958 190.406 129.031 190.989 129.031 190.989Z" fill="#FFB8B8"/>
<path d="M128.955 210.639L128.803 219.223C128.765 219.798 128.889 220.371 129.158 220.858C129.615 221.734 131.643 228.332 131.643 228.332L133.316 227.281L133.164 224.653C133.164 224.653 132.86 221.033 131.846 219.69L133.316 211.456L128.955 210.639Z" fill="#FFB8B8"/>
<path opacity="0.1" d="M128.955 210.639L128.803 219.223C128.765 219.798 128.889 220.371 129.158 220.858C129.615 221.734 131.643 228.332 131.643 228.332L133.316 227.281L133.164 224.653C133.164 224.653 132.86 221.033 131.846 219.69L133.316 211.456L128.955 210.639Z" fill="black"/>
<path d="M133.519 226.055C133.519 226.055 129.31 227.047 130.02 228.624C130.73 230.201 132.048 233.471 132.048 233.471C132.048 233.471 132.403 235.514 131.744 235.923C131.085 236.332 129.716 238.784 131.034 238.668C132.353 238.551 133.62 236.858 133.62 236.858L134.736 235.222L134.939 235.631L136.967 233.704C136.967 233.704 137.727 231.836 134.939 230.901L133.519 226.055Z" fill="#2F2E41"/>
<path opacity="0.1" d="M133.519 226.055C133.519 226.055 129.31 227.047 130.02 228.624C130.73 230.201 132.048 233.471 132.048 233.471C132.048 233.471 132.403 235.514 131.744 235.923C131.085 236.332 129.716 238.784 131.034 238.668C132.353 238.551 133.62 236.858 133.62 236.858L134.736 235.222L134.939 235.631L136.967 233.704C136.967 233.704 137.727 231.836 134.939 230.901L133.519 226.055Z" fill="black"/>
<path d="M128.093 210.872L127.941 219.456C127.903 220.031 128.027 220.605 128.296 221.091C128.753 221.967 130.781 228.565 130.781 228.565L132.454 227.514L132.302 224.887C132.302 224.887 131.998 221.266 130.984 219.923L132.454 211.69L128.093 210.872Z" fill="#FFB8B8"/>
<path d="M132.657 226.288C132.657 226.288 128.448 227.281 129.158 228.858C129.868 230.434 131.186 233.704 131.186 233.704C131.186 233.704 131.541 235.748 130.882 236.157C130.223 236.565 128.854 239.018 130.172 238.901C131.491 238.784 132.758 237.091 132.758 237.091L133.874 235.456L134.077 235.865L136.105 233.938C136.105 233.938 136.865 232.069 134.077 231.135L132.657 226.288Z" fill="#2F2E41"/>
<path d="M129.741 192.449C130.805 192.449 131.668 191.456 131.668 190.23C131.668 189.005 130.805 188.011 129.741 188.011C128.677 188.011 127.815 189.005 127.815 190.23C127.815 191.456 128.677 192.449 129.741 192.449Z" fill="#FFB8B8"/>
<path d="M129.513 193.588C129.513 193.588 131.643 192.245 132.606 192.245C133.57 192.245 134.634 191.719 134.736 192.362C134.837 193.004 135.851 194.697 134.837 194.581C133.823 194.464 133.012 194.639 132.505 194.581C131.998 194.522 129.513 193.588 129.513 193.588Z" fill="#575A89"/>
<path d="M128.296 208.887C128.296 208.887 127.384 211.515 127.992 211.632C129.388 211.83 130.794 211.928 132.2 211.924C132.353 211.807 132.86 208.77 128.296 208.887Z" fill="#8E44AD"/>
<path d="M134.533 210.055C133.468 211.223 134.077 211.748 133.671 212.624C133.265 213.5 130.274 212.799 129.057 210.931C127.84 209.062 127.536 209.763 126.217 209.529C124.899 209.296 123.733 208.186 124.848 207.544C125.429 207.159 125.891 206.575 126.171 205.874C126.418 205.309 126.573 204.697 126.628 204.068C126.666 203.63 126.648 203.187 126.572 202.756C126.369 201.621 126.713 199.381 127.272 197.385C127.569 196.175 128.039 195.03 128.663 193.998C128.693 193.956 128.723 193.917 128.753 193.88C129.969 192.362 132.708 193.471 132.708 193.471C132.708 193.471 134.736 195.398 134.026 197.851C133.433 199.833 133.506 201.999 134.229 203.924C134.786 205.383 135.598 208.887 134.533 210.055Z" fill="#575A89"/>
<path d="M126.623 205.267L126.065 205.675C126.065 205.675 123.783 204.916 123.834 205.675C123.885 206.434 126.217 206.668 126.217 206.668L127.029 205.967L126.623 205.267Z" fill="#FFB8B8"/>
<path opacity="0.1" d="M129.361 194.289C129.361 194.289 127.892 193.606 127.916 196.283C127.99 198.269 128.236 200.242 128.651 202.172L126.576 205.628L127.231 206.785L131.44 202.814V197.325C131.44 197.325 131.237 194.522 129.361 194.289Z" fill="black"/>
<path opacity="0.1" d="M130.73 197.033V202.522L126.851 206.172L126.598 205.529C126.835 204.986 126.574 204.71 126.628 204.068L127.941 201.88C127.628 200.401 127.405 198.899 127.272 197.385C127.569 196.175 128.039 195.03 128.663 193.998C130.528 194.243 130.73 197.033 130.73 197.033Z" fill="black"/>
<path d="M129.158 193.997C129.158 193.997 127.689 193.314 127.714 195.991C127.787 197.977 128.034 199.95 128.448 201.88L126.374 205.336L127.029 206.493L131.237 202.522V197.033C131.237 197.033 131.034 194.23 129.158 193.997Z" fill="#575A89"/>
<path d="M133.062 188.301C134.363 188.301 135.419 187.086 135.419 185.587C135.419 184.088 134.363 182.873 133.062 182.873C131.76 182.873 130.705 184.088 130.705 185.587C130.705 187.086 131.76 188.301 133.062 188.301Z" fill="#2F2E41"/>
<path d="M135.095 187.835C134.789 188.088 134.436 188.255 134.064 188.319C133.692 188.383 133.311 188.344 132.955 188.204C132.599 188.065 132.277 187.829 132.016 187.517C131.755 187.204 131.562 186.825 131.455 186.409C131.496 186.782 131.603 187.14 131.77 187.462C131.937 187.784 132.16 188.063 132.425 188.281C132.691 188.499 132.992 188.651 133.311 188.728C133.63 188.804 133.96 188.804 134.278 188.727C134.597 188.65 134.899 188.497 135.164 188.279C135.429 188.061 135.652 187.782 135.819 187.46C135.985 187.137 136.092 186.778 136.132 186.406C136.173 186.034 136.145 185.656 136.053 185.296C136.105 185.779 136.044 186.27 135.876 186.717C135.707 187.163 135.437 187.549 135.095 187.835Z" fill="#2F2E41"/>
<path d="M131.137 191.604C132.091 191.604 132.865 190.712 132.865 189.613C132.865 188.514 132.091 187.623 131.137 187.623C130.182 187.623 129.409 188.514 129.409 189.613C129.409 190.712 130.182 191.604 131.137 191.604Z" fill="#2F2E41"/>
<path d="M129.684 190.246C130.53 190.246 131.215 189.629 131.215 188.867C131.215 188.105 130.53 187.487 129.684 187.487C128.837 187.487 128.152 188.105 128.152 188.867C128.152 189.629 128.837 190.246 129.684 190.246Z" fill="#2F2E41"/>
<path d="M129.275 190.873C129.435 190.873 129.566 190.608 129.566 190.281C129.566 189.953 129.435 189.688 129.275 189.688C129.114 189.688 128.984 189.953 128.984 190.281C128.984 190.608 129.114 190.873 129.275 190.873Z" fill="#FFB8B8"/>
<defs>
<linearGradient id="paint0_linear" x1="175.792" y1="236.663" x2="175.792" y2="196.049" gradientUnits="userSpaceOnUse">
<stop stop-color="#808080" stop-opacity="0.25"/>
<stop offset="0.53514" stop-color="#808080" stop-opacity="0.12"/>
<stop offset="1" stop-color="#808080" stop-opacity="0.1"/>
</linearGradient>
</defs>
</svg>
