<svg width="89" height="89" viewBox="0 0 89 89" fill="none" xmlns="http://www.w3.org/2000/svg">
<circle cx="44.5" cy="44.5" r="43.5" stroke="#8E44AD" stroke-width="2"/>
<path d="M30.7109 58.6793C30.6458 58.6132 30.5682 58.5605 30.4827 58.5245C30.3971 58.4885 30.3053 58.4697 30.2125 58.4694C30.1197 58.469 30.0277 58.487 29.9419 58.5224C29.8561 58.5577 29.7781 58.6097 29.7125 58.6754C29.6468 58.741 29.5949 58.819 29.5595 58.9048C29.5242 58.9906 29.5062 59.0826 29.5066 59.1754C29.507 59.2682 29.5257 59.3601 29.5618 59.4456C29.5979 59.5311 29.6505 59.6087 29.7167 59.6738L31.4535 61.4106C31.5186 61.4768 31.5962 61.5294 31.6817 61.5654C31.7672 61.6014 31.8591 61.6202 31.9519 61.6205C32.0447 61.6209 32.1367 61.6029 32.2225 61.5675C32.3083 61.5322 32.3863 61.4802 32.4519 61.4145C32.5175 61.3489 32.5695 61.2709 32.6048 61.1851C32.6402 61.0993 32.6582 61.0073 32.6578 60.9145C32.6574 60.8217 32.6386 60.7298 32.6026 60.6443C32.5665 60.5588 32.5139 60.4812 32.4477 60.4161L30.7109 58.6793Z" fill="#8E44AD"/>
<path d="M31.0791 43.3242C31.2116 43.4531 31.3895 43.5247 31.5743 43.5234C31.7591 43.5221 31.936 43.4482 32.0667 43.3175C32.1974 43.1868 32.2713 43.0099 32.2726 42.825C32.2738 42.6402 32.2022 42.4623 32.0733 42.3299L24.6863 34.9429L27.1076 32.5484L29.1072 34.5479L38.227 43.6677L23.7895 58.1052C23.6153 58.2793 23.4772 58.486 23.383 58.7135C23.2888 58.941 23.2402 59.1848 23.2402 59.4311C23.2402 59.6773 23.2888 59.9211 23.383 60.1486C23.4772 60.3761 23.6153 60.5828 23.7895 60.7569L30.3695 67.337C30.7215 67.688 31.1983 67.8852 31.6953 67.8852C32.1924 67.8852 32.6692 67.688 33.0211 67.337L47.4586 52.8995L57.867 63.3078C57.897 63.3372 57.9295 63.3638 57.9643 63.3873C57.9738 63.394 57.9834 63.4002 57.9932 63.4063C58.0234 63.4253 58.055 63.4419 58.0877 63.4561C58.0927 63.4582 58.0975 63.4611 58.1027 63.4632C58.1332 63.4754 58.1645 63.4855 58.1964 63.4934L65.7081 65.3441C65.8256 65.373 65.9486 65.3712 66.0652 65.3387C66.1817 65.3062 66.2879 65.2441 66.3735 65.1586C66.4591 65.073 66.5211 64.9668 66.5536 64.8502C66.5861 64.7337 66.588 64.6107 66.559 64.4932L64.7082 56.9815C64.7003 56.9496 64.6903 56.9182 64.6781 56.8877C64.6759 56.8826 64.673 56.8778 64.6708 56.8726C64.6566 56.84 64.64 56.8084 64.6211 56.7783C64.615 56.7684 64.6087 56.7588 64.602 56.7492C64.5785 56.7145 64.5519 56.6819 64.5225 56.652L54.1143 46.2437L68.4649 31.8942C68.639 31.7201 68.7771 31.5134 68.8713 31.2859C68.9656 31.0584 69.0141 30.8146 69.0141 30.5684C69.0141 30.3221 68.9656 30.0783 68.8713 29.8508C68.7771 29.6233 68.639 29.4166 68.4649 29.2425L61.8848 22.6623C61.5329 22.3112 61.0561 22.1141 60.559 22.1141C60.0619 22.1141 59.5851 22.3112 59.2332 22.6623L55.4611 26.4342L44.883 37.0125L33.2771 25.4063C33.1452 25.2744 32.9664 25.2003 32.7799 25.2003C32.5934 25.2003 32.4146 25.2744 32.2827 25.4063L31.9387 25.7503L30.9864 24.7821C30.6599 24.4481 30.2698 24.1829 29.839 24.0022C29.4083 23.8216 28.9457 23.7291 28.4786 23.7302H28.476C27.7797 23.7303 27.0991 23.9368 26.5202 24.3236C25.9413 24.7105 25.4901 25.2603 25.2236 25.9036C24.9572 26.5469 24.8875 27.2548 25.0233 27.9377C25.1592 28.6206 25.4945 29.2479 25.9868 29.7402L26.9617 30.7148L23.1953 34.4401C23.1294 34.5053 23.0771 34.5828 23.0412 34.6683C23.0054 34.7537 22.9868 34.8454 22.9866 34.9381C22.9863 35.0308 23.0044 35.1226 23.0397 35.2082C23.0751 35.2939 23.127 35.3717 23.1925 35.4373L31.0791 43.3242ZM63.0314 57.1498L58.3646 61.8164L30.5989 34.0509L35.2656 29.3841L63.0314 57.1498ZM32.0272 66.3432C31.9391 66.431 31.8199 66.4803 31.6956 66.4803C31.5713 66.4803 31.452 66.431 31.364 66.3432L24.7839 59.7632C24.7404 59.7196 24.7059 59.668 24.6823 59.6111C24.6587 59.5542 24.6466 59.4933 24.6466 59.4317C24.6466 59.3701 24.6587 59.3092 24.6823 59.2523C24.7059 59.1954 24.7404 59.1438 24.7839 59.1002L34.6238 49.2604L37.7644 52.401C37.8295 52.4671 37.9071 52.5197 37.9926 52.5558C38.0782 52.5918 38.17 52.6106 38.2628 52.6109C38.3556 52.6113 38.4476 52.5933 38.5334 52.5579C38.6192 52.5226 38.6972 52.4706 38.7628 52.4049C38.8284 52.3393 38.8804 52.2613 38.9158 52.1755C38.9511 52.0896 38.9691 51.9977 38.9687 51.9049C38.9683 51.812 38.9495 51.7202 38.9135 51.6347C38.8774 51.5492 38.8248 51.4716 38.7586 51.4065L35.618 48.2659L39.2216 44.6624L46.4648 51.9054L32.0272 66.3432ZM59.7433 62.4265L63.6414 58.5285L64.9158 63.7009L59.7433 62.4265ZM48.8467 35.0374L51.9873 38.178C52.0525 38.2442 52.13 38.2968 52.2155 38.3328C52.3011 38.3689 52.3929 38.3876 52.4857 38.388C52.5785 38.3884 52.6705 38.3703 52.7563 38.335C52.8422 38.2996 52.9201 38.2476 52.9858 38.182C53.0514 38.1164 53.1034 38.0384 53.1387 37.9525C53.174 37.8667 53.192 37.7747 53.1916 37.6819C53.1912 37.5891 53.1725 37.4973 53.1364 37.4118C53.1004 37.3262 53.0477 37.2487 52.9816 37.1836L49.8409 34.043L55.9581 27.9258L57.8168 29.7845C57.8818 29.8512 57.9594 29.9044 58.0451 29.9409C58.1307 29.9774 58.2228 29.9966 58.316 29.9972C58.4091 29.9978 58.5014 29.9799 58.5876 29.9446C58.6738 29.9092 58.7521 29.8571 58.8179 29.7912C58.8838 29.7254 58.9359 29.6471 58.9712 29.5609C59.0066 29.4747 59.0244 29.3824 59.0238 29.2893C59.0232 29.1961 59.004 29.104 58.9675 29.0184C58.931 28.9327 58.8778 28.8551 58.8111 28.7902L56.9523 26.9317L60.2273 23.6568C60.3153 23.569 60.4345 23.5197 60.5588 23.5197C60.6831 23.5197 60.8023 23.569 60.8903 23.6568L67.4705 30.2368C67.5583 30.3248 67.6075 30.444 67.6075 30.5683C67.6075 30.6926 67.5583 30.8118 67.4705 30.8998L53.1204 45.25L45.8773 38.0068L48.8467 35.0374ZM34.2714 28.3897L29.6045 33.0566L28.113 31.565L32.7798 26.8982L34.2714 28.3897ZM26.9815 28.7461C26.6858 28.4504 26.4844 28.0737 26.4029 27.6635C26.3213 27.2534 26.3631 26.8283 26.5231 26.442C26.6832 26.0556 26.9542 25.7254 27.3018 25.4931C27.6495 25.2607 28.0583 25.1367 28.4765 25.1367H28.478C28.7585 25.1361 29.0363 25.1916 29.2949 25.3001C29.5535 25.4087 29.7878 25.5679 29.9839 25.7685L30.9448 26.7449L28.0938 29.5954L27.9613 29.7263L26.9815 28.7461Z" fill="#8E44AD"/>
</svg>
