<svg width="89" height="89" viewBox="0 0 89 89" fill="none" xmlns="http://www.w3.org/2000/svg">
<circle cx="44.5" cy="44.5" r="43.5" stroke="#8E44AD" stroke-width="2"/>
<path d="M45 53.125C44.5179 53.125 44.0466 53.268 43.6458 53.5358C43.245 53.8036 42.9325 54.1843 42.748 54.6297C42.5636 55.0751 42.5153 55.5652 42.6093 56.038C42.7034 56.5109 42.9355 56.9452 43.2764 57.2861C43.6173 57.627 44.0516 57.8591 44.5245 57.9532C44.9973 58.0472 45.4874 57.9989 45.9328 57.8145C46.3782 57.63 46.7589 57.3175 47.0267 56.9167C47.2945 56.5159 47.4375 56.0446 47.4375 55.5625C47.4368 54.9163 47.1797 54.2967 46.7228 53.8397C46.2658 53.3828 45.6462 53.1257 45 53.125ZM45 56.375C44.8393 56.375 44.6822 56.3273 44.5486 56.2381C44.415 56.1488 44.3108 56.0219 44.2494 55.8734C44.1879 55.725 44.1718 55.5616 44.2031 55.404C44.2345 55.2464 44.3118 55.1016 44.4255 54.988C44.5391 54.8743 44.6839 54.797 44.8415 54.7656C44.9991 54.7343 45.1625 54.7504 45.3109 54.8118C45.4594 54.8733 45.5863 54.9775 45.6756 55.1111C45.7649 55.2447 45.8125 55.4018 45.8125 55.5625C45.8123 55.7779 45.7266 55.9844 45.5743 56.1368C45.4219 56.2891 45.2154 56.3748 45 56.375Z" fill="#8E44AD"/>
<path d="M64.5 31.1875C64.5 31.0808 64.479 30.9751 64.4382 30.8766C64.3973 30.778 64.3375 30.6884 64.262 30.613L54.512 20.863C54.4366 20.7875 54.347 20.7277 54.2484 20.6868C54.1499 20.646 54.0442 20.625 53.9375 20.625H29.5625C28.4854 20.6262 27.4528 21.0546 26.6912 21.8162C25.9296 22.5778 25.5012 23.6104 25.5 24.6875V65.3125C25.5012 66.3896 25.9296 67.4222 26.6912 68.1838C27.4528 68.9454 28.4854 69.3738 29.5625 69.375H60.4375C61.5146 69.3738 62.5472 68.9454 63.3088 68.1838C64.0704 67.4222 64.4988 66.3896 64.5 65.3125V31.1875ZM54.75 23.399L61.726 30.375H57.1875C56.5413 30.3743 55.9217 30.1172 55.4647 29.6603C55.0078 29.2033 54.7507 28.5837 54.75 27.9375V23.399ZM62.875 65.3125C62.8742 65.9587 62.6172 66.5783 62.1602 67.0352C61.7033 67.4922 61.0837 67.7492 60.4375 67.75H29.5625C28.9163 67.7492 28.2967 67.4922 27.8398 67.0352C27.3828 66.5783 27.1258 65.9587 27.125 65.3125V24.6875C27.1258 24.0413 27.3828 23.4217 27.8398 22.9648C28.2967 22.5078 28.9163 22.2508 29.5625 22.25H53.125V27.9375C53.1262 29.0146 53.5546 30.0472 54.3162 30.8088C55.0778 31.5704 56.1104 31.9988 57.1875 32H62.875V65.3125Z" fill="#8E44AD"/>
<path d="M45 35.25C43.2767 35.2519 41.6245 35.9374 40.4059 37.1559C39.1874 38.3745 38.5019 40.0267 38.5 41.75C38.5 41.9655 38.5856 42.1722 38.738 42.3245C38.8903 42.4769 39.097 42.5625 39.3125 42.5625C39.528 42.5625 39.7347 42.4769 39.887 42.3245C40.0394 42.1722 40.125 41.9655 40.125 41.75C40.125 40.7858 40.4109 39.8433 40.9466 39.0416C41.4823 38.2399 42.2436 37.6151 43.1344 37.2461C44.0252 36.8771 45.0054 36.7806 45.9511 36.9687C46.8967 37.1568 47.7654 37.6211 48.4471 38.3029C49.1289 38.9846 49.5932 39.8533 49.7813 40.7989C49.9694 41.7446 49.8729 42.7248 49.5039 43.6156C49.1349 44.5064 48.5101 45.2677 47.7084 45.8034C46.9067 46.3391 45.9642 46.625 45 46.625C44.7845 46.625 44.5778 46.7106 44.4255 46.863C44.2731 47.0153 44.1875 47.222 44.1875 47.4375V50.6875C44.1875 50.903 44.2731 51.1097 44.4255 51.262C44.5778 51.4144 44.7845 51.5 45 51.5C45.2155 51.5 45.4222 51.4144 45.5745 51.262C45.7269 51.1097 45.8125 50.903 45.8125 50.6875V48.1992C47.4533 47.9929 48.9538 47.169 50.0084 45.8951C51.063 44.6213 51.5924 42.9934 51.4888 41.343C51.3853 39.6925 50.6565 38.1435 49.451 37.0115C48.2454 35.8795 46.6537 35.2496 45 35.25Z" fill="#8E44AD"/>
</svg>
